<?xml version="1.0" encoding="UTF-8" standalone="no"?>
<svg
   xmlns:dc="http://purl.org/dc/elements/1.1/"
   xmlns:cc="http://creativecommons.org/ns#"
   xmlns:rdf="http://www.w3.org/1999/02/22-rdf-syntax-ns#"
   xmlns:svg="http://www.w3.org/2000/svg"
   xmlns="http://www.w3.org/2000/svg"
   viewBox="0, 0, 250,250"
   height="100%"
   width="100%">
  <path
     stroke="#000000"
     stroke-width="11"
     fill="none"
     d="m 8.5126049,35.375002 v 1.195001 1.194999 1.194999 1.195002 1.195 1.194998 1.195001 1.195 1.195002 H 7.5084032 v 1.194998 1.195 1.195001 1.195 1.194999 1.195001 1.194999 1.195001 1.194999 1.195002 1.195 1.195 1.194998 1.195001 1.195 1.195001 1.194999 1.195 1.195001 1.195 1.195001 1.194998 1.195001 1.194999 h 1.0042017 v 1.195002 1.194999 1.195001 1.195 1.195 1.194999 1.195001 1.194999 1.195001 1.194999 1.195001 1.195001 1.194999 1.195 1.194999 1.195001 1.195001 1.194999 1.195 1.195001 1.194996 1.194998 1.19501 1.195 1.195 1.19499 1.195 1.195 1.19501 1.19499 1.19501 1.19499 1.195 h 1.0042016 v 1.195 1.195 1.195 1.195 1.19501 1.19499 1.19501 1.195 1.195 1.19499 1.195 1.195 1.19501 1.19499 1.195 1.19501 1.19501 1.19498 1.195 1.19501 1.195 1.195 1.19499 1.19502 1.19499 1.19499 1.195 1.19501 1.19499 1.19501 1.19501 1.19499 1.195 1.19499 1.19501 1.19499 H 8.5126049 v 1.19501 1.195 1.195 1.195 1.19501 1.19498 1.195 1.19499 H 7.5084032 v 1.19503 1.195 1.19499 1.195 1.19501 1.19498 1.195 1.19501 1.195 1.195 H 6.5042017 v 1.19499 1.19502 1.19499 1.195 1.195 1.195 1.19499 1.19501 1.19501 1.19499 1.195 1.19499 H 5.5 v 1.19502 1.19498 1.19501 1.195 1.195 1.19501 1.19499 1.19501 1.19498 1.19501 1.19499 1.19502 1.19499 1.195 1.195 1.19499 1.19501 1.195 1.19501 1.19498 1.19502 1.195 1.19499 1.19499 1.19501 1.195 1.19499 h 1.0042017 v 1.19501 1.19501 h 1.0042015 v 1.195 h 1.0042017 v 1.19499 h 1.0042016 v 1.195 h 1.0042015 v 1.19501 h 1.004202 1.004201 v 1.19499 h 1.004201 v 1.195 h 1.004203 1.0042 1.004203 v 1.195 h 1.004202 1.0042 1.004203 1.004201 1.004201 1.004202 1.004202 1.004201 1.004202 v 1.19501 h 1.004202 1.004201 1.004202 1.004202 v 1.195 h 1.004201 1.004202 1.004202 1.004201 1.004201 1.004202 1.004202 1.004202 1.0042 1.004203 1.004202 1.0042 1.004203 1.004201 1.004202 1.004201 v 1.195 h 1.004202 1.004201 1.004201 1.004204 1.004201 1.004201 1.004202 1.004201 1.004201 1.004204 1.0042 l 1.004202,1.19499 h 1.004202 1.0042 1.004203 1.004199 1.004204 1.004202 1.0042 1.004203 1.004202 1.0042 V 242.11 h 1.004202 1.004202 1.004201 1.004203 1.004201 v 1.19501 h 1.004201 1.004202 1.004202 1.004202 1.004201 1.004202 1.004201 1.004201 V 244.5 h 1.004202 1.004202 1.004202 1.004201 1.004202 1.004201 1.004201 1.004202 1.004203 1.004201 1.004201 1.004203 1.0042 1.004202 1.004203 1.004201 1.004202 v -1.19499 h 1.004201 1.0042 1.00421 1.0042 1.00421 1.00419 1.0042 1.00421 V 242.11 h 1.0042 1.0042 1.0042 1.00421 1.0042 1.0042 1.0042 1.0042 1.00421 1.0042 1.0042 1.00419 1.00421 1.0042 l 1.00419,-1.19499 h 1.00422 1.0042 1.0042 1.0042 1.00421 1.0042 1.0042 1.0042 1.0042 1.0042 1.0042 1.0042 1.00421 1.0042 1.00419 1.00421 1.00421 1.0042 1.00419 1.00422 1.00419 1.0042 1.00419 1.00422 1.0042 1.00419 1.0042 1.00422 1.0042 1.00419 1.0042 1.00422 V 242.11 h 1.00419 1.00419 1.0042 1.00422 1.0042 1.00419 1.00421 1.00421 1.00419 1.0042 1.00421 1.0042 1.00419 1.0042 1.00422 1.00419 1.0042 1.0042 1.00422 1.00419 1.0042 1.0042 1.00421 1.00419 1.0042 1.00421 1.00421 1.00419 1.0042 1.0042 1.00421 1.0042 1.0042 1.00421 1.0042 1.00419 1.0042 1.0042 1.00421 1.0042 1.0042 1.00421 1.0042 1.0042 1.0042 1.0042 1.00421 1.00419 1.00421 1.00419 1.00421 1.00419 1.00421 1.00421 v 1.19501 h 1.0042 1.0042 1.00421 1.0042 1.00418 V 244.5 h 1.0042 1.00421 1.00421 1.0042 1.00421 1.00419 1.0042 1.0042 1.00421 1.0042 1.00421 1.00419 1.0042 1.0042 1.0042 1.0042 1.00421 1.0042 1.00421 1.0042 1.0042 1.00419 1.00421 1.0042 1.0042 1.0042 v -1.19499 h 1.00421 V 242.11 h 1.0042 v -1.19499 h 1.00419 v -1.19499 h 1.0042 v -1.195 -1.195 h 1.00421 v -1.19501 -1.195 -1.195 H 244.5 v -1.19499 -1.19501 -1.195 -1.19499 -1.195 -1.19501 -1.19501 -1.19499 -1.195 h -1.00421 v -1.19501 -1.19499 -1.19499 h -1.00421 v -1.195 -1.19502 -1.19498 h -1.0042 v -1.19501 -1.195 h -1.00419 v -1.19501 -1.19499 h -1.0042 v -1.195 -1.195 h -1.00421 v -1.19499 -1.19502 -1.19499 h -1.0042 v -1.19501 -1.19498 -1.19501 -1.19499 -1.19501 -1.195 -1.195 -1.19501 h -1.0042 v -1.19498 -1.19502 -1.19499 -1.195 -1.19499 -1.19501 -1.19501 -1.19499 -1.195 -1.195 -1.195 -1.19499 -1.19502 -1.19499 -1.195 -1.195 -1.19501 -1.195 -1.19498 -1.19501 -1.195 -1.19499 -1.195 -1.19503 -1.19499 -1.195 -1.19498 -1.19501 -1.195 -1.195 -1.195 -1.19501 -1.19499 -1.19501 -1.19499 -1.195 -1.19499 -1.19501 -1.19501 -1.19499 -1.19501 -1.195 -1.19499 -1.19499 -1.19502 -1.19499 -1.195 -1.195 -1.19501 -1.195 -1.19498 h 1.0042 v -1.19501 -1.19501 -1.195 -1.19499 -1.19501 -1.195 -1.195 -1.19499 -1.195 -1.195 -1.19501 -1.19499 -1.19501 -1.195 h 1.0042 v -1.195 -1.195 -1.195 -1.195 -1.19499 -1.19501 -1.19499 -1.19501 -1.195 -1.195 -1.19499 -1.195 l 1.00421,-1.195 V 101.1 v -1.194998 -1.194996 -1.195001 -1.195 -1.194999 -1.195001 -1.195001 h 1.0042 v -1.194999 -1.195 -1.194999 -1.195001 -1.195001 -1.194999 -1.195001 h 1.00419 v -1.194999 -1.195001 -1.194999 -1.195 -1.195 -1.195001 -1.194999 -1.195002 -1.194999 -1.195001 -1.194998 -1.195001 -1.195 -1.195001 -1.195 -1.194999 -1.195001 -1.195 -1.195001 -1.194998 -1.195 -1.195 -1.195002 -1.194999 -1.195001 -1.194999 h 1.0042 v -1.195001 -1.194999 -1.195 -1.195001 -1.195 -1.194998 -1.195002 -1.195 h 1.00421 v -1.195001 -1.194998 -1.195 -1.195002 -1.194999 -1.194999 -1.195001 -1.195 -1.195001 -1.194999 -1.195 -1.195001 -1.194999 -1.195 -1.195001 -1.195 h -1.00421 v -1.195 -1.194999 -1.195 h -1.0042 V 19.84 18.645 17.450002 h -1.00419 v -1.195001 h -1.0042 v -1.195 h -1.00421 v -1.195002 h -1.0042 V 12.67 h -1.0042 -1.0042 v -1.194999 h -1.00421 -1.00419 -1.0042 -1.0042 -1.00421 -1.0042 -1.00421 v -1.195 h -1.0042 -1.0042 -1.0042 -1.0042 -1.00419 -1.00421 -1.0042 -1.00421 -1.0042 -1.0042 -1.00419 -1.00421 -1.0042 -1.00421 -1.00421 -1.0042 -1.00418 -1.0042 -1.00421 -1.0042 -1.0042 V 9.0850001 h -1.00421 -1.00421 -1.00419 -1.00421 -1.00419 -1.00421 -1.00419 -1.00421 V 7.8900007 h -1.0042 -1.0042 -1.0042 -1.0042 -1.00421 -1.0042 -1.0042 V 6.6950004 h -1.00421 -1.0042 -1.0042 -1.00419 -1.0042 -1.00421 -1.0042 -1.0042 -1.00421 -1.0042 -1.0042 -1.00419 -1.00421 -1.00421 -1.0042 -1.00419 -1.00421 -1.0042 -1.0042 -1.00419 -1.00422 -1.0042 -1.0042 -1.00419 -1.00422 -1.0042 V 5.5 h -1.00419 -1.0042 -1.00421 -1.0042 -1.00419 -1.00421 -1.00421 -1.00419 -1.0042 -1.00422 -1.0042 -1.00419 -1.00419 -1.00422 -1.0042 -1.00419 -1.0042 -1.00422 -1.0042 -1.00419 -1.0042 -1.00422 -1.00419 -1.0042 -1.00419 -1.00422 -1.00419 -1.0042 -1.00421 -1.00421 -1.00419 -1.0042 -1.00421 -1.0042 -1.0042 -1.0042 -1.0042 -1.0042 -1.0042 -1.0042 H 125 h -1.0042 -1.0042 -1.0042 -1.00422 -1.00419 -1.0042 -1.00421 -1.00419 -1.0042 -1.0042 -1.00421 -1.0042 -1.0042 -1.0042 -1.0042 -1.00421 -1.0042 -1.0042 -1.0042 -1.00421 -1.0042 -1.00419 -1.00421 -1.0042 -1.00421 -1.0042 -1.004201 -1.004202 -1.004201 -1.004203 -1.004202 -1.0042 -1.004203 -1.004201 -1.004201 -1.004203 -1.004202 -1.004201 -1.004201 -1.004202 -1.004201 V 6.6950004 H 82.823524 81.819322 80.81512 79.810919 78.806718 77.802516 76.798315 75.794113 74.789911 73.785709 72.781508 71.777307 70.773104 69.768903 68.764701 67.760499 v 1.1950003 h -1.0042 -1.004202 -1.004203 -1.0042 -1.004202 -1.004204 -1.004199 -1.004203 -1.0042 -1.004202 -1.004202 v 1.1949994 h -1.0042 -1.004204 -1.004201 -1.004201 -1.004202 -1.004201 -1.004201 -1.004204 -1.004201 -1.004201 v 1.1950009 h -1.004202 -1.004201 -1.004202 -1.004201 -1.004203 -1.0042 l -1.004202,1.195 h -1.004203 -1.0042 -1.004202 -1.004202 -1.004202 -1.004201 V 12.67 H 32.613444 31.609242 30.60504 29.600839 28.596637 27.592435 v 1.194999 H 26.588234 25.584032 24.57983 v 1.195002 h -1.004201 l -1.004202,1.195 h -1.004202 v 1.195001 H 20.563024 19.558823 V 18.645 h -1.004203 -1.0042 v 1.195 h -1.004202 v 1.195002 h -1.004203 v 1.195 h -1.0042 v 1.194999 h -1.004203 v 1.195 h -1.004201 v 1.195 1.195001 H 11.52521 v 1.195 1.194999 h -1.004202 v 1.195001 H 9.5168065 v 1.195 H 8.5126049 v 1.194999 H 7.5084032 v 1.195001 1.195 1.195001 1.194999 1.194999 1.195002"
     id="path2" />
  <path
     stroke="#000000"
     stroke-width="5"
     fill="none"
     d="m 45.167018,179.57678 h -1.020705 v 1.01421 1.0142 h -1.020704 v 1.01421 1.01421 h -1.020704 v 1.01422 1.0142 H 41.0842 v 1.01421 1.01421 h -1.020704 v 1.01422 1.01421 1.0142 h -1.020704 v 1.01421 h -1.020704 v 1.01421 1.01422 1.0142 h -1.020705 v 1.01421 l -1.020704,1.01421 v 1.01422 h -1.020704 v 1.0142 1.01421 H 33.93927 v 1.01421 1.01421 h -1.020703 v 1.01422 1.0142 h -1.020706 v 1.01421 1.01421 h -1.020705 v 1.01422 h -1.020703 v 1.0142 1.01421 h -1.020705 v 1.01421 1.01421 h -1.020704 v 1.01421 H 26.79434 v 1.01421 1.01421 h -1.020705 v 1.01421 h -1.020704 v 1.01422 h -1.020704 v 1.0142 h -1.020704 v 1.01421 h -1.020705 v 1.01421 h 1.020705 1.020704 1.020704 1.020704 v -1.01421 h 1.020705 1.020704 1.020704 v -1.01421 h 1.020705 1.020703 v -1.0142 h 1.020705 1.020706 v -1.01422 h 1.020703 v -1.01421 h 1.020705 1.020704 1.020704 v -1.01421 h 1.020705 1.020704 1.020704 v -1.01421 h 1.020704 1.020705 v -1.01421 h 1.020704 1.020704 1.020705 l 1.020703,-1.01421 h 1.020705 1.020705 v -1.01421 h 1.020703 1.020705 v -1.01421 h 1.020705 1.020704 v -1.0142 h 1.020705 1.020704 1.020704 v -1.01422 h 1.020704 1.020705 v -1.01421 h 1.020704 1.020704 v -1.01421 h 1.020705 1.020704 1.020704 v -1.0142 h 1.020705 1.020704 v -1.01422 h 1.020704 v -1.01421 -1.01421 H 64.5604 v -1.01421 l -1.020704,-1.0142 v -1.01422 h -1.020705 v -1.01421 -1.01421 h -1.020704 v -1.0142 h -1.020704 v -1.01422 h -1.020705 v -1.01421 h -1.020704 v -1.01421 -1.0142 H 57.41547 l -1.020705,-1.01421 v -1.01422 h -1.020704 v -1.01421 h -1.020704 v -1.01421 h -1.020704 v -1.0142 l -1.020705,-1.01422 h -1.020704 v -1.01421 h -1.020705 v -1.01421 h -1.020705 -1.020703 v -1.0142 h -1.020705 v -1.01421 h -1.020705 -1.020703 v -1.01422 h -1.020705 v -1.01421"
     id="path4" />
  <path
     stroke="#000000"
     stroke-width="5"
     fill="none"
     d="m 48.70791,170.82849 h 1.020704 1.020704 1.020704 1.020705 1.020704 v 1.01422 h 1.020704 1.020705 v 1.01421 h 1.020703 1.020705 v 1.0142 h 1.020706 v 1.01421 h 1.020703 v 1.01422 h 1.020705 v 1.01421 h 1.020704 v 1.0142 h 1.020704 v 1.01421 h 1.020705 v 1.01421 h 1.020704 l 1.020704,1.01422 h 1.020704 v 1.0142 h 1.020705 v 1.01421 1.01421 h 1.020704 v 1.01422 H 70.1427 v 1.01421 h 1.020705 v 1.0142 1.01421 h 1.020703 v 1.01421 h 1.020705 v 1.01422 1.0142 1.01421 h 1.020705"
     id="path6" />
  <path
     stroke="#000000"
     stroke-width="5"
     fill="none"
     d="m 47.563367,170.82849 h 1.144543 l 1.144542,-1.3202 h 1.144542 v -1.32021 h 1.144545 l 1.144542,-1.32018 h 1.144542 v -1.32021 h 1.144543 v -1.3202 h 1.144543 v -1.3202 h 1.144543 l 1.144542,-1.3202 h 1.144545 v -1.3202 h 1.144542 1.144542 v -1.32021 h 1.144544 v -1.3202 h 1.144541 v -1.32019 h 1.144544 v -1.32021 h 1.144542 1.144544 v -1.32019 -1.3202 h 1.144542 v -1.3202 h 1.144543 v -1.3202 h 1.144543 v -1.3202 h 1.144543 v -1.32021 h 1.144544 v -1.32019 h 1.144542 1.144543 v -1.32021 h 1.144542 v -1.3202 h 1.144542 v -1.3202 h 1.144545 v -1.3202 h 1.144542 1.144543 v -1.32019 h 1.144542 1.144545 v -1.3202 h 1.144541 v -1.32021 h 1.144543 v -1.32019 h 1.144545 v -1.3202 h 1.14454 v -1.32021 h 1.144543 v -1.3202 h 1.144543 v -1.32019 h 1.144543 v -1.32021 h 1.144543 v -1.3202 h 1.144542 l 1.144544,-1.3202 1.144543,-1.32021 1.144542,-1.32019 1.144543,-1.3202 h 1.144546 v -1.32021 h 1.14454 v -1.3202 h 1.14455 v -1.32019 h 1.14454 v -1.32021 h 1.14453 v -1.3202 h 1.14455 v -1.3202 h 1.14454 v -1.3202 h 1.14454 v -1.32019 h 1.14455 l 1.14455,-1.3202 h 1.14454 v -1.32021 h 1.14455 v -1.32019 h 1.14452 v -1.3202 h 1.14456 l 1.14455,-1.32021 h 1.14455 v -1.3202 h 1.14453 v -1.32019 h 1.14454 v -1.32021 h 1.14455 1.14453 v -1.320198 h 1.14455 v -1.320199 h 1.14455 v -1.320202 h 1.14453 V 95.57707 h 1.14455 v -1.320199 h 1.14454 V 92.93667 h 1.14454 1.14454 v -1.3202 h 1.14455 v -1.320201 h 1.14454 v -1.320198 h 1.14455 v -1.320202 h 1.14454 v -1.3202 h 1.14453 v -1.3202 h 1.14455 v -1.320201 h 1.14456 v -1.3202 h 1.14452 v -1.320201 h 1.14456 v -1.3202 h 1.14453 l 1.14455,-1.320201 h 1.14454 v -1.3202 h 1.14453 v -1.3202 h 1.14457 v -1.3202 h 1.14452 l 1.14456,-1.320201 v -1.3202 h 1.14453 1.14455 v -1.3202 h 1.14454 v -1.3202 h 1.14455 v -1.320203 h 1.14453 v -1.320198 h 1.14454 1.14455 v -1.320201 h 1.14454 v -1.3202 h 1.14455 v -1.320201 h 1.14454 v -1.320199 h 1.14453 v -1.320202 h 1.14455 v -1.320199 h 1.14455 1.14454 v -1.3202 h 1.14456 V 55.97106 h 1.14452 v -1.3202 h 1.14456 v -1.320199 h 1.14452 v -1.3202 h 1.14456 l 1.14454,-1.320202 h 1.14453 V 49.37006 h 1.14455 v -1.320201 h 1.14454 v -1.320201 h 1.14454 v -1.320199 h 1.14454 v -1.320201 h 1.14457 v -1.320201 h 1.14453 v -1.3202 h 1.14455 v -1.3202 h 1.14454 l 1.14454,-1.3202 h 1.14454 v -1.320201 h 1.14455 v -1.3202 h 1.14453 v -1.320201 h 1.14455 v -1.320199 h 1.14453 v -1.320201 h 1.14455 v -1.3202 h 1.14454 v -1.320201 h 1.14454 1.14456 v -1.3202 h 1.14453 1.14455 v -1.3202 h 1.14455 1.14454 1.14453 v -1.320201 h 1.14456 1.14453 1.14454 1.14455 v -1.3202 h 1.14453 1.14455 1.14455 1.14453 v 1.3202 h 1.14456 1.14454 1.14454 v 1.320201 h 1.14454 v 1.3202 h 1.14454 1.14454 v 1.3202 h 1.14455 1.14454 v 1.320201 h 1.14455 1.14453 v 1.3202 h 1.14455 v 1.320201 h 1.14455 v 1.320199 l 1.14453,1.320201 v 1.3202 h 1.14454 v 1.320201 1.3202 h 1.14456 v 1.3202 1.3202 1.320201 h 1.14454 v 1.320201 1.320199 1.320201 1.320201 1.320199 h -1.14454 v 1.320202 h -1.14456 v 1.3202 h -1.14454 v 1.320199 h -1.14453 v 1.3202 1.320202 h -1.14455 v 1.3202 1.320199 h -1.14455 v 1.320202 1.320199 h -1.14453 v 1.320201 h -1.14455 v 1.3202 h -1.14454 v 1.320201 h -1.14455 v 1.320198 h -1.14454 v 1.320203 1.3202 h -1.14454 v 1.3202 H 211.233 v 1.3202 1.320201 h -1.14454 v 1.3202 h -1.14454 v 1.3202 h -1.14456 v 1.3202 1.320201 h -1.14453 v 1.3202 h -1.14455 v 1.320201 h -1.14455 v 1.3202 h -1.14453 v 1.320201 h -1.14455 v 1.3202 h -1.14454 v 1.3202 h -1.14453 v 1.320202 h -1.14456 v 1.320198 h -1.14453 v 1.320201 h -1.14454 v 1.3202 h -1.14455 v 1.320201 h -1.14455 v 1.320199 h -1.14453 v 1.320201 h -1.14456 v 1.320202 h -1.14454 v 1.320199 h -1.14454 v 1.320198 h -1.14455 l -1.14453,1.32021 -1.14455,1.32019 h -1.14453 v 1.3202 h -1.14455 v 1.32021 h -1.14454 v 1.3202 h -1.14454 v 1.32019 h -1.14454 -1.14455 v 1.32021 h -1.14453 v 1.3202 h -1.14457 v 1.32019 h -1.14454 l -1.14454,1.3202 h -1.14454 v 1.3202 h -1.14455 v 1.3202 H 171.174 v 1.32021 h -1.14454 v 1.32019 h -1.14456 v 1.3202 h -1.14452 -1.14456 v 1.32021 h -1.14452 v 1.3202 h -1.14456 v 1.32019 h -1.14454 v 1.32021 h -1.14455 v 1.3202 h -1.14455 l -1.14453,1.3202 h -1.14454 v 1.32021 h -1.14455 v 1.32019 h -1.14454 l -1.14455,1.3202 h -1.14454 v 1.32021 h -1.14453 v 1.3202 h -1.14455 -1.14454 v 1.32019 h -1.14455 v 1.32021 h -1.14453 v 1.3202 h -1.14456 -1.14452 v 1.32019 h -1.14457 v 1.3202 h -1.14453 v 1.3202 h -1.14454 l -1.14455,1.3202 h -1.14453 v 1.32021 h -1.14456 v 1.32019 h -1.14452 -1.14456 v 1.32021 h -1.14455 v 1.3202 h -1.14453 v 1.3202 h -1.14454 -1.14455 v 1.3202 H 131.115 v 1.3202 h -1.14455 -1.14454 v 1.32019 h -1.14454 v 1.32021 h -1.14454 -1.14455 v 1.32019 h -1.14453 -1.14455 v 1.3202 h -1.14455 v 1.32021 h -1.14453 -1.14455 v 1.3202 h -1.14454 v 1.3202 h -1.14453 v 1.3202 h -1.14455 -1.14455 v 1.3202 h -1.14456 v 1.32021 h -1.14452 -1.14455 v 1.32018 h -1.14454 v 1.32021 h -1.14455 -1.14455 v 1.3202 h -1.14454 v 1.3202 h -1.14454 -1.14455 v 1.32021 h -1.14453 l -1.14454,1.32019 h -1.14455 v 1.3202 h -1.14454 -1.144546 v 1.32021 h -1.144543 -1.144542 v 1.3202 h -1.144543 v 1.32019 H 94.489622 93.34508 v 1.32021 h -1.144543 v 1.3202 h -1.144543 -1.144543 v 1.32021 h -1.144543 v 1.32019 h -1.14454 -1.144545 v 1.3202 H 85.33328 v 1.3202 h -1.144541 -1.144545 v 1.3202 h -1.144542 v 1.32019 h -1.144543 -1.144542 v 1.32021 h -1.144545 v 1.3202 H 77.32148 v 1.3202 h -1.144542 v 1.32019 h -1.144543 v 1.3202"
     id="path8" />
</svg>
