<?xml version="1.0" encoding="UTF-8" standalone="no"?>
<svg
   xmlns:dc="http://purl.org/dc/elements/1.1/"
   xmlns:cc="http://creativecommons.org/ns#"
   xmlns:rdf="http://www.w3.org/1999/02/22-rdf-syntax-ns#"
   xmlns:svg="http://www.w3.org/2000/svg"
   xmlns="http://www.w3.org/2000/svg"
   viewBox="0, 0, 250, 250"
   height="100%"
   width="100%">
  <g
     class="active"
     transform="matrix(1.0809684,0,0,1.0839137,26.518627,43.309432)"
     id="g6">
    <path
       stroke="#000000"
       stroke-width="10.8191"
       fill="none"
       d="m -15.744451,25.801152 v 0.984136 0.984136 0.984135 0.984136 h -0.982972 v 0.984136 0.984135 0.984136 0.984135 0.984136 0.984135 0.984136 0.984136 0.984135 0.984136 0.984136 0.984135 0.984136 0.984135 0.984135 0.984136 l 0.982972,0.984136 v 0.984136 0.984135 0.984136 0.984136 0.984135 0.984136 h 0.982972 v 0.984135 0.984135 0.984136 0.984136 0.984136 0.984135 0.984136 0.984136 0.984135 0.984136 0.984135 0.984135 0.984136 0.984136 0.984135 0.984136 0.984136 0.984136 0.984135 0.984136 0.984135 0.984135 0.984136 0.984136 0.984135 0.984136 0.984136 0.984135 h 0.982972 v 0.984136 0.984136 0.984135 0.984135 0.984136 0.984136 0.984135 0.984136 0.984136 0.984135 0.984136 0.984136 0.984134 0.984136 0.984136 0.984136 0.984135 0.984136 0.984136 h -0.982972 v 0.984132 0.984131 0.98414 0.98414 h -0.982972 v 0.98413 0.98414 0.98413 0.98414 0.98414 0.98413 0.98414 0.98413 h -0.982972 v 0.98414 0.98414 0.98413 0.98414 l -0.982973,0.98413 v 0.98414 0.98413 0.98414 0.98414 0.98413 h -0.982972 v 0.98414 0.98413 0.98414 0.98414 0.98413 0.98414 0.98412 0.98414 0.98414 0.98413 0.98414 0.98413 0.98414 0.98414 0.98413 0.98414 0.98413 l 0.982972,0.98414 v 0.98413 0.98414 0.98414 0.98413 0.98414 0.98413 0.98414 0.98414 0.98413 0.98414 0.98413 0.98414 0.98414 0.98413 0.98414 0.98413 0.98414 0.98413 0.98414 0.98414 0.98412 0.98414 0.98413 0.98414 0.98414 0.98413 0.98414 h 0.982973 v 0.98413 0.98414 0.98414 0.98413 h 0.982972 v 0.98414 0.98413 h 0.982972 v 0.98414 0.98414 h 0.982972 v 0.98413 h 0.982973 v 0.98414 h 0.982972 0.982972 v 0.98413 h 0.9829719 0.9829722 v 0.98414 h 0.9829721 0.9829723 0.9829721 0.9829722 v 0.98413 h 0.9829721 0.9829722 0.9829721 0.98297216 0.98297215 0.98297213 v 0.98414 H 1.9490479 2.93202 h 0.9829722 0.9829721 0.9829721 0.9829722 0.9829721 0.9829722 0.9829719 0.9829722 0.982973 0.982972 0.982971 0.982972 0.982973 0.982972 0.982972 0.982972 0.982973 0.982972 0.982972 0.982972 0.982973 0.982971 0.982972 0.982972 0.982973 0.982972 0.982972 0.982972 0.982973 0.982972 0.982972 0.982972 0.982972 0.982972 0.982972 0.982972 0.982973 0.982972 0.982972 0.982972 0.982972 0.982973 0.982972 0.982972 0.982971 0.982973 0.982972 0.982972 0.982972 0.982973 0.982972 0.982972 0.982972 v 0.98414 h 0.982973 0.982972 0.982971 0.982972 0.982973 0.982972 0.982972 v 0.98413 h 0.982972 0.982973 0.982972 0.982972 0.982972 0.982973 0.982971 0.982972 l 0.982972,0.98414 h 0.982973 0.982972 0.982972 0.982972 0.982973 0.982972 v 0.98413 h 0.982972 0.982972 0.982972 0.982972 0.982972 v 0.98414 h 0.982972 0.982972 0.982973 0.982972 0.982972 0.982972 0.982973 0.982972 0.982971 0.982972 v 0.98414 h 0.982973 0.982972 0.982972 0.982972 0.982973 0.982972 0.982972 0.982977 0.982964 0.98297 0.98298 0.98297 0.98298 0.98296 v 0.98413 h 0.98298 0.98297 0.98297 0.98297 0.98297 0.98298 0.98297 0.98297 0.98297 0.98297 0.98298 0.98297 0.98298 0.98296 0.98297 0.98298 0.98297 0.98298 0.98296 0.98298 0.98297 0.98297 0.98298 0.98296 0.98298 0.98297 0.98298 0.98296 0.98297 0.98298 0.98297 0.98298 0.98296 0.98298 0.98297 0.98297 0.98298 0.98296 0.98298 0.98297 v -0.98413 h 0.98297 0.98298 0.98296 0.98298 0.98297 0.98298 0.98296 0.98297 0.98298 0.98297 0.98298 0.98296 v -0.98414 h 0.98298 0.98297 0.98297 0.98298 0.98296 0.98298 0.98297 0.98298 0.98297 0.98296 0.98298 0.98297 0.98298 0.98297 0.98297 0.98297 0.98297 0.98298 0.98296 0.98298 0.98297 0.98297 0.98298 v -0.98414 h 0.98296 0.98298 0.98297 0.98298 0.98297 0.98296 0.98298 0.98297 0.98298 0.98297 v -0.98413 h 0.98297 v -0.98414 h 0.98297 v -0.98413 h 0.98297 v -0.98414 h 0.98298 v -0.98414 -0.98413 h 0.98297 v -0.98414 -0.98413 -0.98414 h 0.98297 v -0.98413 -0.98414 -0.98414 -0.98413 h 0.98297 v -0.98414 -0.98413 h 0.98298 v -0.98414 -0.98414 -0.98413 -0.98414 h 0.98297 v -0.98413 -0.98414 -0.98414 -0.98413 -0.98414 -0.98412 -0.98414 -0.98414 -0.98413 -0.98414 -0.98413 -0.98414 -0.98413 l 0.98296,-0.98414 v -0.98414 -0.98413 -0.98414 -0.98413 -0.98414 -0.98414 -0.98413 -0.98414 -0.98413 -0.98414 -0.98414 -0.98413 -0.98414 -0.98413 -0.98414 -0.98413 -0.98414 -0.98414 -0.98413 -0.98414 -0.98413 -0.98414 -0.98414 -0.98412 h -0.98296 v -0.98414 -0.98413 -0.98414 -0.98414 -0.98413 -0.98414 -0.98413 h -0.98297 v -0.98414 -0.98414 -0.98413 -0.98414 -0.98413 -0.98414 -0.98413 -0.98414 -0.98414 -0.98413 -0.98414 -0.98413 -0.98414 -0.98414 -0.98413 -0.98414 -0.98413 -0.98414 -0.98414 V 99.611319 98.627187 97.643051 96.658915 95.67478 94.690644 93.706508 92.722372 91.738238 90.754102 89.769966 88.785831 87.801695 86.817559 85.833424 84.849288 83.865152 82.881017 81.896882 80.912746 79.92861 78.944475 77.960339 76.976203 75.992068 75.007932 74.023796 73.039661 72.055526 71.07139 70.087255 69.103119 68.118983 67.134847 66.150712 65.166576 64.18244 63.198305 62.21417 61.230034 h 0.98297 V 60.245899 59.261763 58.277627 57.293492 56.309356 55.32522 54.341084 53.356949 52.372814 51.388678 50.404543 49.420407 48.436271 47.452136 46.468 45.483864 44.499728 43.515593 42.531458 41.547322 h 0.98296 V 40.563187 39.579051 38.594915 37.61078 36.626644 35.642508 34.658373 33.674237 32.690102 31.705966 30.721831 29.737695 28.753559 27.769424 26.785288 25.801152 24.817017 23.832881 22.848746 21.864611 20.880475 19.896339 18.912203 17.928068 16.943932 15.959796 14.975661 13.991525 13.00739 12.023255 11.039119 10.054983 9.0708475 8.0867119 7.1025763 6.1184407 5.1343051 4.1501695 3.1660339 2.1818984 h 0.98298 V 1.1977628 0.21362717 -0.77050842 -1.754644 -2.7387796 -3.7229152 -4.7070508 -5.6911864 h 0.98297 V -6.675322 -7.6594576 -8.6435932 -9.6277288 -10.611864 h 0.98298 v -0.984136 -0.984136 -0.984135 -0.984136 -0.984135 -0.984136 -0.984135 -0.984136 -0.984136 -0.984135 -0.984136 -0.984136 -0.984135 -0.984136 -0.984135 -0.984135 -0.984136 h -0.98298 v -0.984136 h -0.98297 v -0.984136 h -0.98298 v -0.984135 h -0.98296 v -0.984136 h -0.98297 -0.98298 v -0.984136 h -0.98297 -0.98297 -0.98297 v -0.984135 h -0.98298 -0.98297 -0.98297 -0.98297 -0.98297 v -0.984136 h -0.98298 -0.98297 -0.98298 -0.98296 -0.98297 -0.98298 -0.98297 -0.98298 -0.98296 -0.98298 -0.98297 -0.98297 -0.98298 -0.98296 -0.98298 -0.98297 -0.98297 -0.98297 -0.98297 -0.98298 -0.98297 -0.98298 -0.98296 -0.98297 -0.98298 -0.98297 -0.98298 -0.98296 -0.98298 -0.98297 -0.98297 -0.98298 -0.98296 v 0.984136 h -0.98298 -0.98297 -0.98298 -0.98297 -0.98296 -0.98298 -0.98297 -0.98298 -0.98296 -0.98298 -0.98297 -0.98297 -0.98298 -0.98296 -0.98298 -0.98297 -0.98297 -0.98298 -0.98296 -0.98298 -0.98297 -0.98298 -0.98297 -0.98296 -0.98298 -0.98297 -0.98298 -0.98296 -0.98298 -0.98297 -0.98297 -0.98298 -0.98296 -0.98298 -0.98297 -0.98298 -0.98297 -0.98296 -0.98298 -0.98297 -0.98298 -0.98297 -0.98297 -0.98297 -0.98297 -0.98298 -0.98297 -0.98297 -0.98297 -0.98297 -0.98298 -0.98296 -0.98298 -0.98297 -0.98298 -0.98297 H 99.263296 98.280319 97.297347 96.314375 95.331402 94.34843 93.365458 92.382486 91.399513 90.416541 89.43357 88.450598 87.467625 86.484653 85.501681 84.518709 83.535736 82.552764 81.569792 80.58682 79.603848 78.620876 77.637904 76.654932 75.67196 74.688987 73.706015 72.723043 71.740071 70.757098 69.774126 68.791154 67.808183 66.82521 65.842238 64.859266 63.876294 62.893321 61.910349 60.927377 v 0.984135 H 59.944405 58.961432 57.97846 56.995489 56.012517 55.029544 54.046572 53.0636 52.080628 51.097655 50.114683 49.131711 48.148739 47.165766 46.182795 45.199823 44.216851 43.233878 42.250906 41.267934 40.284962 39.30199 38.319017 37.336045 36.353073 35.370101 34.387129 33.404157 v 0.984136 H 32.421185 31.438213 30.45524 29.472268 28.489296 27.506324 26.523351 25.540379 24.557407 23.574436 22.591463 21.608491 20.625519 19.642547 v 0.984136 H 18.659574 17.676602 16.69363 15.710658 14.727685 13.744713 12.761742 11.77877 10.795797 v 0.984135 H 9.8128248 8.8298529 7.8468807 6.8639086 v 0.984136 H 5.8809364 4.8979643 3.9149922 2.93202 v 0.984136 H 1.9490479 0.96607564 v 0.984136 H -0.01689649 -0.99986864 -1.9828408 l -0.9829721,0.984135 h -0.9829722 -0.9829721 -0.9829722 v 0.984135 h -0.9829721 -0.9829723 -0.9829721 v 0.984136 H -9.8466181 -10.82959 v 0.984135 h -0.982972 v 0.984136 h -0.982972 v 0.984136 h -0.982973 v 0.984135 h -0.982972 v 0.984136 h -0.982972 v 0.984136 0.984135 0.984136 h -0.982972 v 0.984135 0.984136 0.984135 0.984136 0.984136 0.9841352 0.9841356 0.9841356 0.9841356 0.9841356 0.9841356 0.9841356 0.9841356 0.9841356 0.98413558 0.98413559 0.98413563 0.9841356 0.9841355 0.9841356 0.9841356 0.9841356 0.9841356 0.9841356 0.9841356 0.9841355 0.984136 0.984136 0.984135 0.984135 0.984136 0.984135 0.984136 0.984136 0.984135 0.984136 0.984136 0.984136 0.984135 0.984135 0.984136 0.984135 0.984136 0.984136 h -0.982973 v 0.984135"
       id="path2" />
    <path
       stroke="#000000"
       stroke-width="7"
       fill="none"
       d="m 38.910321,8.3595297 v 1 1.0000003 1 1 1 1 1 1 1 1 1 1 1 1 1 h 1 v 1 1 1 1 1 1 1 1 1 1 1 1 1 1 1 1 1 1 1 1 h -1 v 1 1 1 1 1 1 1 1 1 1 1 1 1 1 1 1 1 1 1 1 1 1 1 1 1 1 1 1 1 1 h 1 v 1 1 1 1 1 1 1 1 1 h 1 v 1 1 1 1 1 1 1 1 h 1 v 1 1 1 1 1 1 1 1 1 1 1 1 1 1 1 1 1 1 h 1 v 1 1 1 1 1 1 1 1 1 1 1 1 1 h 1 v 1 1 1 1 1 1 h 1 v 1 1 1 1 1 h 1 v 1 1 1 1 1 1 1 h 1 v 1 1 1 h 1 v 1 1 h 1 v 1 1 h 1 v 1 -1 h 1 v -1 h 1 v -1 -1 h 1 v -1 h 1 v -1 l 1,-1 v -1 h 1 v -1 h 1 v -1 h 1 1 v -1 h 1 v -1 h 1 v -1 h 1 1 v -1 h 1 1 v -1 h 1 v -1 h 1 1 v -1 h 1 v -1 h 1 1 v -1 h 1 v -1 h 1 1 v -1 h 1 v -1 h 1 v -1 h 1 v -1 h 1 v -1 h 1 v -1 h 1 1 v -1 h 1 v -1 h 1 v -1 h 1 1 v -1 h 1 1 v 1 1 h 1 v 1 h 1 v 1 1 h 1 v 1 h 1 v 1 l 1,1 v 1 h 1 v 1 h 1 v 1 1 h 1 v 1 h 1 v 1 h 1 1 v 1 h 1 v 1 h 0.999999 1 v 1 h 1 v 1 h 1 v 1 h 1 l 1,1 h 1 v 1 h 1 v 1 h 1 v 1 h 1 v 1 h 1 v 1 h 1 v 1 h 1 1 v 1 h 1 v 1 h 1 1 v 1 -1 h 1 v -1 -1 -1 h 1 v -1 -1 h 1 v -1 -1 -1 -1 -1 -1 -1 -1 -1 -1 -1 -1 -1 h -1 v -1 -1 -1 -1 -1 -1 l -1,-1 v -1 -1 -1 -1 -1 -1 h -1 v -1 -1 -1 h -1 v -1 -1 -1 -1 h -1 v -1 -1 -1 h 1 v -1 h 1 1 1 v -1 h 1 1 1 1 1 1 1 1 1 1 1 1 1 1 v -1 h 1 1 1 1 1 v -1 h 1 1 v -1 h 1 1 1 v -1 h 1 1 1 1 v -1 h 1 1 1 v -1 h 1 1 1 v -1 h 1 1 1 v -1 -1 -1 l -1,-1 v -1 h -1 v -1 h -1 v -1 -1 h -1 l -1,-1 h -1 v -1 h -1 v -1 h -1 v -1 h -1 v -1 h -1 -1 v -1 h -1 -1 v -1 h -1 v -1 h -1 v -1 h -1 v -1 h -1 v -1 h -1 v -1 h -1 v -1 h -1 v -1 h -1 v -1 h -1 v -1 h -1 v -1 h -1 v -1 h -1 v -1 h -1 l -1,-1 h -1 v -1 h -1 v -1 h -1 l -1,-1 h -1 v -1 h -1 v -1 h -1 v -1 h -1 v -1 h -1 v -1 h -1 v -1 h -1 v -1 h -1 v -1 h -1 v -1 h -1 v -1 h -1 -1 v -1 h -1 v -1 h -1 v -1 h -1 v -1 h -1 v -1 h -1 v -1 h -1 -1 v -1 h -1 v -1 h -1 v -1 h -1 v -1 h -1 v -1 h -1 v -1 h -0.999999 l -1,-1 h -1 v -1 h -1 -1 v -1 h -1 l -1,-1 h -1 v -1 h -1 -1 v -1 h -1 v -1 h -1 -1 v -1 h -1 l -1,-1 h -1 l -1,-1 h -1 v -1 h -1 v -1 h -1 l -1,-1 h -1 v -1 h -1 v -1 h -1 v -1 h -1 -1 v -1 h -1 -1 v -1 h -1 l -1,-1 h -1 v -1 h -1 v -1 h -1 -1 v -1 h -1 v -1 h -1 -1 v -1 h -1 -1 v -1 h -1 v -1 h -1 l -1,-1 h -1 v -1 h -1 v -1 h -1 v -1 h -1 -1 v -1 h -1 v -1 h -1 V 9.3595297 h -1 v -1 h -1 v -1 h -1 l -1,-1 h -1 v -1 h -1 v -1 h -1 v -1 h -1 v -1 h -1 v -1 h -1 V 0.35952969 h -1 -1 v -0.99999997 h -1 v 0.99999997 1.00000001 1 1"
       id="path4" />
  </g>
</svg>
