<?xml version="1.0" encoding="UTF-8" standalone="no"?>
<svg
   xmlns:dc="http://purl.org/dc/elements/1.1/"
   xmlns:cc="http://creativecommons.org/ns#"
   xmlns:rdf="http://www.w3.org/1999/02/22-rdf-syntax-ns#"
   xmlns:svg="http://www.w3.org/2000/svg"
   xmlns="http://www.w3.org/2000/svg"
   viewBox="0, 0, 250, 250"
   height="100%"
   width="100%">
  <g
     class="active"
     id="g14">
    <path
       stroke="#000000"
       stroke-width="1"
       fill="none"
       d="m 2.4153846,228.01765 v -0.97647 -0.97647 -0.97647 h 0.9576923 v -0.97647 -0.97648 -0.97647 -0.97647 -0.97647 -0.97647 -0.97647 -0.97647 -0.97647 -0.97647 -0.97647 -0.97647 -0.97647 l 0.9576923,-0.97647 v -0.97647 -0.97647 -0.97647 -0.97647 -0.97648 -0.97647 -0.97647 -0.97647 -0.97647 -0.97647 -0.97647 V 199.7 h 0.9576924 v -0.97647 -0.97647 -0.97647 -0.97647 -0.97647 -0.97647 -0.97647 -0.97647 -0.97647 -0.97648 -0.97647 h 0.9576923 v -0.97647 -0.97647 -0.97647 -0.97647 -0.97647 -0.97647 -0.97647 l 0.9576923,-0.97647 v -0.97647 -0.97647 -0.97647 -0.97647 -0.97647 -0.97647 -0.97647 -0.97648 -0.97647 -0.97647 -0.97647 -0.97647 -0.97647 -0.97647 -0.97647 -0.97647 -0.97647 -0.97647 -0.97647 -0.97647 -0.97647 -0.97647 -0.97647 -0.97648 -0.97647 H 6.2461539 v -0.97647 -0.97647 -0.97647 -0.97647 -0.97647 -0.97647 -0.97647 -0.97647 -0.97647 -0.97647 H 5.2884616 v -0.97647 -0.97647 -0.97647 -0.97647 -0.97647 -0.97648 -0.97647 -0.97647 H 4.3307692 v -0.97647 -0.97647 -0.97647 -0.97647 -0.97647 -0.97647 -0.97647 -0.97647 -0.97647 -0.97647 -0.97647 -0.97647 -0.97647 -0.97647 -0.97648 -0.97647 -0.97647 -0.97647 -0.97647 -0.97647 -0.97647 -0.97647 -0.97647 -0.97647 -0.97647 -0.97647 -0.97647 -0.97647 -0.97647 -0.97647 -0.97647 -0.97648 -0.97647 -0.97647 -0.97647 -0.97647 -0.97647 -0.97647 -0.97647 V 100.1 99.12353 98.147059 97.170587 96.194118 95.217647 94.241177 93.264706 H 3.3730769 v -0.976471 -0.97647 -0.976471 -0.97647 -0.976471 -0.97647 -0.976471 -0.976471 -0.97647 V 83.5 82.52353 81.547059 80.570588 79.594118 78.617647 77.641177 H 2.4153846 v -0.976471 -0.976471 -0.97647 -0.976471 -0.97647 -0.976471 -0.976471 -0.97647 -0.976471 -0.97647 V 66.9 H 1.4576923 v -0.97647 -0.976471 -0.976471 -0.97647 -0.976471 -0.97647 -0.976471 -0.976471 -0.97647 -0.976471 -0.97647 -0.976471 -0.976471 -0.97647 -0.976471 -0.97647 V 50.3 v -0.97647 -0.976471 -0.976471 -0.97647 -0.976471 -0.97647 -0.976471 -0.976471 -0.97647 -0.976471 -0.97647 -0.976471 -0.976471 -0.97647 -0.976471 -0.97647 V 33.7 v -0.976471 -0.97647 -0.976471 -0.97647 -0.976471 -0.97647 -0.976471 -0.976471 -0.97647 -0.976471 -0.97647 -0.976471 -1.952941 -0.976471 -0.97647 V 17.1 16.123529 15.147059 14.170588 13.194118 12.217647 H 2.4153846 V 11.241176 10.264706 9.2882357 H 3.3730769 V 8.3117647 H 4.3307692 V 7.3352941 6.3588235 5.382353 H 5.2884616 V 4.4058824 H 6.2461539 V 3.4294118 H 7.2038462 8.1615385 9.1192308 L 10.076923,2.4529412 H 11.034615 11.992308 12.95 V 1.4764706 h 0.957692 0.957693 0.957692 0.957692 0.957693 0.957692 0.957692 0.957693 0.957692 0.957692 0.957692 0.957693 0.957692 0.957692 0.957693 v 0.9764706 h 0.957692 0.957692 0.957693 0.957692 0.957692 0.957693 0.957692 0.957692 0.957692 0.957693 0.957692 0.957692 v 0.9764706 h 0.957693 0.957692 0.957692 0.957693 0.957692 0.957692 0.957693 0.957692 0.957692 0.957693 0.957692 0.957692 0.957692 0.957693 0.957692 0.957692 0.957693 0.957692 0.957692 0.957693 0.957692 0.957692 0.957693 0.957692 0.957692 0.957692 0.957693 0.957692 0.957692 0.957693 0.957692 0.957692 0.957693 0.957692 0.957692 0.957693 0.957692 0.957692 0.957692 0.957693 0.957692 0.957692 0.957693 0.957692 0.957692 0.957693 0.957692 0.957692 V 2.4529412 h 0.957693 0.957692 0.957692 0.957693 0.957692 0.957692 0.957692 l 0.957693,-0.9764706 h 0.957692 0.957692 0.957693 0.957692 0.957692 0.957693 0.957692 H 100.1 V 0.5 h 0.95769 0.95769 0.9577 0.95769 0.95769 0.95769 0.9577 0.95769 0.95769 0.95769 0.9577 0.95769 0.95769 0.95769 0.95769 0.9577 0.95769 0.95769 0.95769 0.9577 0.95769 0.95769 0.95769 0.9577 0.95769 0.95769 0.95769 0.95769 0.9577 0.95769 0.95769 0.95769 0.9577 0.95769 0.95769 0.95769 0.9577 0.95769 0.95769 0.95769 0.95769 0.9577 0.95769 0.95769 0.95769 0.9577 0.95769 0.95769 0.95769 0.9577 0.95769 0.95769 0.95769 0.95769 0.9577 0.95769 0.95769 0.95769 0.9577 0.95769 0.95769 0.95769 0.9577 0.95769 0.95769 0.95769 0.9577 0.95769 0.95769 0.95769 0.95769 0.9577 0.95769 0.95769 0.95769 0.9577 0.95769 0.95769 0.95769 0.9577 0.95769 0.95769 0.95769 0.95769 0.9577 0.95769 0.95769 0.95769 0.9577 0.95769 0.95769 0.95769 0.9577 0.95769 0.95769 0.95769 0.95769 0.9577 0.95769 0.95769 0.95769 0.9577 0.95769 0.95769 0.95769 0.9577 0.95769 0.95769 0.95769 0.95769 0.9577 0.95769 0.95769 0.95769 0.9577 0.95769 0.95769 0.95769 0.9577 0.95769 0.95769 0.95769 0.95769 v 0.9764706 h 0.9577 0.95769 0.95769 0.95769 0.9577 0.95769 0.95769 0.95769 0.9577 0.95769 0.95769 0.95769 0.95769 0.9577 0.95769 0.95769 0.95769 0.9577 0.95769 0.95769 0.95769 v 0.9764706 h 0.9577 v 0.9764706 0.9764706 h 0.95769 V 5.382353 6.3588235 h 0.95769 v 0.9764706 0.9764706 h 0.95769 v 0.976471 0.9764703 l 0.95769,0.97647 v 0.976471 l 0.9577,0.976471 v 0.97647 0.976471 h 0.95769 V 16.123529 17.1 18.076471 h 0.95769 v 0.97647 0.976471 0.97647 0.976471 0.976471 h 0.95769 v 0.97647 0.976471 0.97647 0.976471 0.976471 0.97647 0.976471 0.97647 0.976471 0.97647 V 33.7 h 0.9577 v 0.976471 0.97647 0.976471 0.97647 0.976471 0.976471 0.97647 0.976471 0.97647 0.976471 0.976471 0.97647 0.976471 0.97647 0.976471 0.976471 0.97647 0.976471 0.97647 0.976471 h 0.95769 v 0.97647 0.976471 0.976471 0.97647 0.976471 0.97647 0.976471 0.976471 0.97647 0.976471 0.97647 0.976471 V 65.92353 66.9 L 249.5,67.876471 v 0.97647 0.976471 0.97647 0.976471 0.976471 0.97647 0.976471 0.97647 0.976471 0.976471 0.97647 0.976471 0.97647 0.976471 0.976471 0.97647 0.976471 0.97647 0.976471 0.976471 0.97647 0.976471 0.97647 0.976471 0.97647 0.976471 0.976471 0.97647 0.976471 0.976469 0.976472 0.976471 0.97647 0.97647 0.97647 0.97647 0.97647 0.97647 0.97647 0.97647 0.97647 h -0.95769 v 0.97648 0.97647 0.97647 0.97647 0.97647 0.97647 h -0.95769 v 0.97647 0.97647 0.97647 0.97647 0.97647 0.97647 0.97647 0.97647 0.97647 h -0.9577 v 0.97647 0.97647 0.97648 0.97647 0.97647 0.97647 0.97647 h -0.95769 v 0.97647 0.97647 0.97647 0.97647 0.97647 0.97647 0.97647 0.97647 0.97647 h -0.95769 v 0.97647 0.97647 0.97647 0.97648 0.97647 0.97647 0.97647 0.97647 0.97647 0.97647 0.97647 0.97647 0.97647 h -0.95769 v 0.97647 0.97647 0.97647 0.97647 0.97647 0.97647 0.97647 0.97648 0.97647 0.97647 0.97647 0.97647 0.97647 0.97647 0.97647 0.97647 0.97647 0.97647 0.97647 0.97647 0.97647 0.97647 0.97647 0.97648 0.97647 0.97647 0.97647 0.97647 h 0.95769 v 0.97647 0.97647 0.97647 0.97647 0.97647 0.97647 0.97647 0.97647 0.97647 0.97647 0.97647 0.97647 0.97648 0.97647 0.97647 0.97647 0.97647 0.97647 0.97647 0.97647 0.97647 0.97647 0.97647 0.97647 0.97647 0.97647 0.97647 0.97647 0.97647 0.97648 0.97647 0.97647 0.97647 0.97647 0.97647 0.97647 0.97647 0.97647 0.97647 h 0.95769 v 0.97647 0.97647 0.97647 0.97647 0.97647 0.97647 0.97647 0.97648 0.97647 h 0.95769 v 0.97647 0.97647 0.97647 0.97647 0.97647 0.97647 0.97647 0.97647 0.97647 0.97647 0.97647 0.97647 0.97647 0.97647 0.97647 0.97648 0.97647 0.97647 0.97647 0.97647 h -0.95769 v 0.97647 h -0.95769 -0.95769 v 0.97647 h -0.9577 -0.95769 v 0.97647 h -0.95769 -0.95769 -0.95769 -0.9577 -0.95769 v 0.97647 h -0.95769 -0.95769 -0.9577 -0.95769 -0.95769 -0.95769 -0.9577 -0.95769 -0.95769 -0.95769 L 226.51539,249.5 h -0.9577 -0.95769 -0.95769 -0.95769 -0.9577 -0.95769 -0.95769 -0.95769 -0.9577 -0.95769 -0.95769 -0.95769 -0.95769 -0.9577 -0.95769 -0.95769 -0.95769 -0.9577 -0.95769 -0.95769 -0.95769 -0.9577 -0.95769 -0.95769 -0.95769 -0.95769 -0.9577 -0.95769 -0.95769 -0.95769 -0.9577 -0.95769 -0.95769 l -0.95769,-0.97647 h -0.9577 -0.95769 -0.95769 -0.95769 -0.95769 -0.9577 -0.95769 -0.95769 -0.95769 -0.9577 -0.95769 -0.95769 v -0.97647 h -0.95769 -0.9577 -0.95769 -0.95769 -0.95769 -0.95769 -0.9577 L 174.8,246.57059 h -0.95769 -0.95769 -0.9577 -0.95769 l -0.95769,-0.97647 h -0.95769 -0.9577 -0.95769 -0.95769 -0.95769 l -0.95769,-0.97647 h -0.9577 -0.95769 -0.95769 -0.95769 -0.9577 -0.95769 l -0.95769,-0.97647 h -0.95769 -0.9577 -0.95769 -0.95769 -0.95769 -0.9577 v -0.97647 h -0.95769 -0.95769 -0.95769 -0.95769 -0.9577 -0.95769 -0.95769 -0.95769 -0.9577 -0.95769 -0.95769 -0.95769 -0.9577 -0.95769 v -0.97647 h -0.95769 -0.95769 -0.95769 -0.9577 -0.95769 -0.95769 -0.95769 -0.9577 -0.95769 -0.95769 -0.95769 -0.9577 -0.95769 H 125 h -0.95769 -0.95769 -0.9577 -0.95769 -0.95769 -0.95769 -0.9577 -0.95769 -0.95769 -0.95769 -0.9577 -0.95769 -0.95769 -0.95769 -0.95769 -0.9577 -0.95769 -0.95769 -0.95769 -0.9577 -0.95769 -0.95769 -0.95769 -0.9577 -0.95769 H 100.1 99.142308 98.184616 97.226923 96.269231 95.311539 94.353846 93.396154 92.438462 91.480769 90.523077 89.565385 88.607693 87.65 86.692308 85.734616 84.776923 83.819231 82.861539 81.903846 80.946154 79.988462 79.030769 78.073077 v 0.97647 H 77.115385 76.157692 75.2 74.242308 73.284616 72.326923 71.369231 70.411539 69.453846 68.496154 67.538462 66.580769 65.623077 64.665385 63.707692 62.75 61.792308 v 0.97647 H 60.834616 59.876923 58.919231 57.961539 57.003846 56.046154 55.088462 54.130769 53.173077 52.215385 51.257692 50.3 49.342308 48.384616 47.426923 46.469231 45.511539 44.553846 43.596154 42.638462 41.680769 40.723077 39.765385 38.807692 37.85 36.892308 35.934615 34.976923 34.019231 33.061539 32.103846 31.146154 30.188462 29.230769 28.273077 27.315385 26.357692 25.4 24.442308 v -0.97647 h -0.957693 -0.957692 -0.957692 -0.957692 -0.957693 -0.957692 -0.957692 -0.957693 l -0.957692,-0.97647 H 14.865385 13.907692 12.95 11.992308 11.034615 v -0.97647 H 10.076923 9.1192308 8.1615385 7.2038462 6.2461539 v -0.97648 H 5.2884616 v -0.97647 H 4.3307692 v -0.97647 H 3.3730769 v -0.97647 H 2.4153846 v -0.97647 -0.97647 H 1.4576923 V 233.87647 232.9 231.92353 H 0.5 v -0.97647 -0.97647 -0.97647 -0.97647 -0.97647 -0.97647 -0.97647 -0.97647 -0.97648 -0.97647 h 0.9576923"
       id="path2" />
    <path
       stroke="#000000"
       stroke-width="1"
       fill="#000000"
       d="m 23.388041,35.493291 v 1 1 1 1 1 1 1 1 1 1 1 1 1 1 1 1 1 1 1 1 1 1 1 1 1 1 1 1 1 1 1 1 1 1 1 1 1 1 1 1 1 1 1 1 1 1 1 1 1 1 1 1 1 1 1 1 1 1 1 1 1 1 1 1 0.999999 1 1 1 1 1 1 1 1 1 1 1 1 1 1 1 1 1 1 1 1 1 1 1 1 1 1 h -1 v 1 1 1 1 1 1 1 1 1 1 1 1 1 1 1 1 1 1 1 1 1 1 1 1 1 1 1 1 1 1 1 1 1 1 1 1 1 1 1 1 1 1 1 1 1 1 1 h 1 v 1 1 1 1 1 1 l 1,1 v 1 1 1 1 1 1 1 1 1 1 1 1 1 1 1 1 1 1 1 1 1 1 1 1 h -1 v 1 1 1 1 1 1 1 h -1 v 1 1 1 1 1 1 1 1 1 1 1 1 1 1 h 1 1 1 1 1 1 1 1 1 1 1 1 1 1 1 1 1 1 1 1 1 1 1 1 1 v 1 h 1 1 1 1 1 1 1 1 1 1 1 1 1 1 1 1 1 1 1 1 v 1 h 1 1 1 1 1 1 1 1 1 1 1 1 1 1 1 1 1 1 1 1 1 1 1 1 1 1 1 1 1 1 1 1 0.999999 1 1 1 1 1 1 1 1 1 1 1 1 1 1 1 1 1 1 1 1 1 1 1 1 1 1 v -1 h 1 1 1 1 1 1 1 1 1 1 1 1 1 1 1 1 1 1 1 1 1 1 1 1 1 v -1 h 1 1 1 1 1 1 1 1 1 1 1 1 1 1 1 1 1 v -1 h 1 1 1 1 1 1 1 1 1 1 1 1 1 1 1 1 1 1 1 1 1 1 1 1 1 1 1 1 1 1 1 1 1 1 1 1 1 1 1 1 1 1 1 1 1 1 1 1 1 1 1 1 1 1 1 1 1 1 1 1 1 v -1 -1 -1 -1 -1 -1 -1 -1 -1 -1 -1 -1 -1 -1 -1 -1 -1 -1 -1 -1 -1 -1 -1 -1 -1 -1 -1 -1 -1 -1 -1 h 1 v -1 -1 -1 -1 -1 -1 -1 -1 -1 h 1 v -1 -1 -1 -1 -1 -1 -1 -1 -1 -1 -1 -1 -1 -1 -1 -1 -1 -1 -1 -1 -1 -1 -1 -1 -1 -1 -1 -1 -1 -1 -1 -1 -1 -1 -1 -1 -1 -1 -1 -1 -1 -1 -1 -1 h -1 v -1 -1 -1 -1 -1 -1 -1 -1 -1 -1 -1 -1 -1 -1 -1 -1 -1 -1 -1 -1 -1 -1 -1 -1 -1 -1 -1 -1 -1 -1 -1 -1 -1 -1 -1 -1 -1 -1 -1 -1 -0.999999 -1 -1 -1 -1 -1 -1 -1 -1 -1 -1 -1 -1 -1 -1 -1 -1 -1 -1 -1 -1 -1 h 1 v -1 -1 -1 -1 -1 -1 -1 -1 -1 -1 -1 -1 -1 -1 -1 -1 -1 -1 -1 -1 -1 -1 -1 -1 -1 -1 -1 -1 -1 -1 -1 -1 -1 -1 -1 -1 -1 -1 -1 -1 h -1 v -1 -1 h -1 -1 v -1 h -1 -1 v -1 -1 h -1 v -1 h -1 v -1 -1 h -1 v -1 -1 h -1 v -1 h -1 v -1 h -1 v -1 h -1 v -1 h -1 -1 -1 -1 -1 -1 -1 -1 -1 -1 -1 v -1 h -1 -1 -1 -1 -1 -1 -1 -1 -1 -1 v -1 h -1 -1 -1 -1 -1 -1 -1 -1 -1 -1 -1 -1 -1 -1 -1 -1 -1 -1 -1 -1 -1 -1 -1 -1 -1 -1 -1 -1 -1 -1 -1 -1 -1 -1 -1 -1 -1 -1 -1 -1 -1 -1 -1 -1 -1 v -1 h -1 -1 -1 -1 -1 -1 -1 -1 -1 -1 -1 -1 -1 -1 -1 -1 -1 -1 -1 -1 -1 -1 -1 -1 -1 -1 -1 -1 -1 -1 -1 -1 -1 -1 -1 -1 -1 -1 -1 -1 -1 -1 -1 -1 -1 -1 -1 -1 -1 -1 -1 -1 -1 -0.999999 -1 -1 -1 -1 -1 -1 -1 -1 -1 -1 -1 -1 -1 -1 -1 -1 -1 -1 -1 -1 -1 -1 -1 -1 -1 -1 l -1,1 h -1 -1 -1 -1 -1 -1 -1 -1 -1 -1 -1 -1 -1 -1 -1 -1 -1 -1 -1 -1 -1 -1 -1 -1 -1 -1 -1 -1 -1 -1 -1 -1 -1 -1 -1 -1 -1 -1 -1 -1 -1 -1 -1 -1 -1 -1 -1 -1 -1 v 1 1 1 1 1 1 1 1 1 1 1 1 1 1 1 1"
       id="path4" />
    <path
       stroke="#000000"
       stroke-width="1"
       fill="#ffffff"
       d="m 66.38804,24.493291 v 1 1 1 1 1 1 1 1 1 1 1 1 1 1 1 1 1 1 1 1 1 1 1 1 1 1 1 1 h 1 v 1 1 1 1 1 1 1 1 1 1 1 1 1 1 1 1 1 1 1 1 1 1 1 1 h -1 v 1 1 1 1 1 1 1 1 1 1 1 h 1 v 1 1 1 h 1 v 1 h 1 1 1 1 1 1 1 1 1 1 1 1 1 v 1 h 1 1 1 1 1 1 1 1 1 1 1 1 1 1 1 1 1 1 1 1 1 1 1 1 1 1 1 1 1 1 1 1 1 1 1 1 1 1 1 1 l 1,1 h 1 1 1 1 1 1 1 1 1 1 1 1 1 1 1 1 1 1 1 1 1 1 1 1 1 1 1 1 1 1 1 1 1 1 1 1 1 1 1 l 1,-1 h 1 1 1 1 1 1 1 1 1 1 1 1 1 1 1 1 v -1 h 1 1 1 1 1 1 v -1 h 1 1 1 1 1 1 1 1 1 1 1 1 1 1 v -1 h 1 v -1 -1 -1 h 1 v -1 -1 -1 -1 -1 -1 -1 -1 -1 -1 -1 -1 -1 -1 -1 h -1 v -1 -1 -1 -1 h -1 v -1 -1 -1 -1 -1 h -1 v -1 -1 -1 -1 -1 -1 -1 -1 -1 -1 -1 -1 -1 -1 -1 -1 -1 -1 -1 -1 -1 -1 -1 -1 -1 -1 -1 -1 -1 -1 -1 -1 -1 -1 -1 -1 -1 -1 h 1 v -1"
       id="path6" />
    <path
       stroke="#000000"
       stroke-width="1"
       fill="#000000"
       d="M 149.38804,94.572596 V 93.431009 92.289423 91.147837 90.006251 88.864665 87.723079 86.581493 85.439907 84.298321 83.156735 82.015148 80.873562 79.731976 78.59039 77.448804 76.307218 75.165632 74.024046 72.88246 71.740874 70.599287 69.457701 h 1 v -1.141586 -1.141586 -1.141586 -1.141586 -1.141586 -1.141586 l 1,-1.141586 V 60.325013 59.183426 58.04184 56.900254 55.758668 54.617082 53.475496 h 1 V 52.33391 51.192324 50.050738 48.909152 h 1 v -1.141587 -1.141586 -1.141586 -1.141586 h 1 v -1.141586 -1.141586 -1.141586 h 1 v -1.141586 h 1 v -1.141586 h 1 v -1.141586 h 1 1 1 1 1 1 1 1 1 1 1 1 1 v 1.141586 h 1 1 1 1 1 1 1 1 1 v 1.141586 1.141586 1.141586 h 1 v 1.141586 1.141586 1.141586 1.141586 h 1 v 1.141586 1.141587 1.141586 1.141586 1.141586 1.141586 1.141586 1.141586 1.141586 1.141586 1.141586 1.141587 1.141586 1.141586 1.141586 1.141586 h -1 v 1.141586 1.141586 1.141586 1.141586 1.141586 h -1 v 1.141587 1.141586 1.141586 1.141586 1.141586 1.141586 h -1 v 1.141586 1.141586 1.141586 1.141586 1.141587 1.141586 1.141586 1.141586 1.141586 1.141586 1.141586 1.141586 1.141586 1.141586 1.141587 1.141586 1.141586 1.141586 1.141586 h 1 v 1.14159"
       id="path8" />
    <path
       stroke="#000000"
       stroke-width="1"
       fill="#FFFFFF"
       d="m 39.880567,112.77685 v 1 1 1 1 1 h -1 v 1 1 1 1 1 1 1 1 1 1 1 1 1 1 1 l -1,1 v 1 1 1 1 1 1 1 1 1 1 1 1 h -1 v 1 1 1 1 1 1 1 1 1 1 1 1 1 1 1 1 1 1 1 1 1 1 1 1 1 1 1 1 1 1 h 1 v 1 1 1 1 1 l 1,1 v 1 1 1 1 1 1 1 1 1 1 1 1 1 1 1 1 1 1 1 1 1 1 1 1 h 1 1 1 1 1 1 1 1 1 1 1 1 1 1 1 1 1 1 1 v 1 h 1 1 1 1 1 1 1 1 1 1 1 1 1 1 1 1 1 1 1 1 v 1 h 1 1 1 1 1 1 1 1 v 1 h 1 1 1 1 1 1 1 1 1 1 1 1 1 1 1.000003 1 1 1 1 1 1 1 1 1 1 1 1 1 1 1 1 1 1 1 1 1 1 1 1 1 1 1 1 1 1 1 1 1 1 1 1 1 l 1,-1 h 1 1 1 1 1 1 1 1 1 1 1 1 1 1 1 1 1 1 1 1 1 1 1 1 1 1 1 1 1 1 1 1 1 1 1 1 1 1 1 1 1 1 1 v -1 h 1 1 1 l 1,-1 h 1 1 1 1 1 1 1 1 1 v -1 h 1 1 1 1 1 1 1 1 1 1 1 1 v -1 h 1 v -1 -1 h 1 v -1 -1 h 1 v -1 -1 -1 h 1 v -1 -1 -1 -1 -1 -1 -1 h 1 v -1 -1 -1 -1 -1 -1 -1 -1 -1 -1 -1 -1 -1 -1 -1 -1 -1 -1 -1 -1 -1 -1 -1 -1 -1 -1 -1 -1 -1 -1 -1 l -1,-1 v -1 -1 -1 -1 -1 -1 -1 -1 -1 -1 -1 -1 -1 -1 -1 -1 -1 -1 -1 -1 -1 -1 -1 -1 -1 -1 -1 -1 -1 -1 -1 -1 h -1 v -1 -1 -1 -1 -1 -1 -1 h -1 v -1 h -1 v -1 h -1 -1 v -1 h -1 v -1 h -1 -1 v -1 h -1 -1 -1 -1 -1 -1 -1 v -1 h -1 -1 -1 -1 -1 -1 -1 -1 -1 -1 -1 v -1 h -1 -1 -1 -1 -1 -1 -1 -1 -1 -1 -1 -1 -1 -1 -1 -1 -1 -1 -1 -1 -1 -1 -1 -1 -1 -1 -1 -1 -1 -1 -1 -1 -1 -1 -1 -1 -1 -1 -1 -1 -1 -1 -1 -1 -1 -1 -1 -1 -1 -1 -1 -1 -1 -1 -1 -1 -1 -1 -1 -1 -1 -1 -1 -1 -1 -1 -1 -1 -1 -1 -1 -1 -1 -1 -1 -1 -1 -1 -1 -1 -1 -1 -1 -1 -1.000003 -1 -1 -1 v 1 h -1 -1 -1 -1 -1 -1 -1 -1 -1 -1 -1 -1 -1 -1 -1 -1 -1 -1 -1 -1 -1 l -1,1 h -1 -1 -1 -1 -1 -1 -1 -1 -1 -1 -1 -1 -1 -1 -1 -1 -1 -1 -1 -1 -1 -1 -1 -1 -1 -1 -1 -1 -1 -1 -1 -1 -1 -1 -1"
       id="path10" />
    <path
       stroke="black"
       stroke-width="1"
       fill="none"
       d="M-63,-346L-63,-346"
       id="path12" />
  </g>
</svg>
