<?xml version="1.0" encoding="UTF-8" standalone="no"?>
<svg
   xmlns:dc="http://purl.org/dc/elements/1.1/"
   xmlns:cc="http://creativecommons.org/ns#"
   xmlns:rdf="http://www.w3.org/1999/02/22-rdf-syntax-ns#"
   xmlns:svg="http://www.w3.org/2000/svg"
   xmlns="http://www.w3.org/2000/svg"
   viewBox="0, 0, 250, 250"
   height="100%"
   width="100%">
  <g
     class="active"
     id="g6"
     style="stroke-width:1.00143">
    <path
       stroke="#000000"
       stroke-width="11"
       fill="none"
       d="m 15.53435,19.127192 v 1.048246 1.048246 1.048245 1.048246 1.048246 1.048246 1.048245 h -0.912206 v 1.048245 1.048247 1.048246 1.048245 1.048245 1.048247 1.048243 1.048247 1.048245 1.048248 1.048244 1.048246 1.048246 1.048245 h -0.912223 v 1.048245 1.048246 1.048245 1.048247 1.048245 1.048245 1.048246 1.048245 1.048247 1.048245 h -0.912206 v 1.048245 1.048247 1.048245 1.048244 1.048246 1.048247 h -0.912224 v 1.048246 1.048245 1.048245 1.048248 1.048243 h -0.912206 v 1.048246 1.048246 1.048245 1.048246 1.048245 1.048247 1.048244 1.048246 1.048246 h -0.912222 v 1.048246 1.048244 1.048247 1.048245 1.048246 1.048245 1.048245 1.048247 1.048245 1.048247 1.048245 1.048244 1.048247 1.048244 1.048247 1.048245 1.048246 1.048246 1.048246 1.048244 1.048248 1.048244 1.048246 1.048245 1.048244 1.048248 1.048255 1.04824 1.04824 1.04826 1.04823 1.04824 1.04825 1.04826 1.04823 1.04825 1.04825 1.04824 1.04825 1.04825 1.04825 1.04823 1.04826 1.04822 1.04825 1.04825 1.04826 1.04823 1.04826 V 125 126.04824 H 9.1488571 v 1.04826 1.04823 1.04826 1.04824 1.04826 1.04823 1.04823 1.04825 1.04826 1.04823 1.04826 1.04825 1.04823 1.04826 1.04823 h -0.912223 v 1.04825 1.04827 1.04824 1.04822 1.04825 1.04825 1.04825 1.04825 1.04824 1.04825 1.04823 1.04825 1.04824 1.04825 1.04826 1.04825 1.04822 1.04826 1.04824 1.04825 1.04827 1.04823 1.04824 1.04824 1.04825 1.04824 1.04824 H 7.3244286 v 1.04826 1.04825 1.04823 1.04825 1.04825 1.04824 1.04826 1.04824 1.04824 1.04825 1.04825 1.04823 1.04826 1.04824 1.04824 1.04825 1.04824 1.04825 1.04824 1.04825 1.04825 1.04824 1.04825 1.04825 h -0.912223 v 1.04823 1.04826 1.04824 1.04826 1.04825 1.04822 1.04824 1.04825 1.04826 1.04824 1.04824 1.04825 1.04825 1.04824 H 5.5 v 1.04825 1.04825 1.04825 1.04824 1.04824 1.04824 1.04826 1.04825 1.04822 1.04826 1.04824 1.04824 1.04826 1.04824 1.04825 1.04825 1.04824 1.04824 1.04825 1.04825 h 0.9122056 v 1.04825 l 0.912223,1.04823 h 0.9122055 v 1.04825 h 0.912223 v 1.04824 h 0.9122059 l 0.912222,1.04825 h 0.912206 l 0.912224,1.04826 h 0.912206 0.912223 v 1.04823 h 0.912206 0.912204 0.912223 0.912205 0.912225 l 0.912204,1.04824 h 0.912224 0.912205 0.912222 0.912206 0.912223 0.912207 0.912222 0.912207 0.912222 0.912206 0.912223 0.912206 0.912206 0.912223 0.912205 0.912222 0.912206 0.912223 0.912205 0.912223 0.912207 0.912222 0.912206 0.912223 0.912206 0.912222 0.912207 0.912223 0.912205 0.912205 0.912223 0.912206 0.912222 0.912207 0.912223 0.912207 0.912222 0.912206 0.912222 0.912206 0.912224 0.912205 0.912223 0.912204 0.912224 0.912204 0.912206 0.912224 0.912206 0.912222 0.912207 0.912223 0.912205 0.912223 v 1.04826 h 0.912206 0.912223 0.912205 0.912224 0.912205 0.912223 0.912205 0.912224 0.912205 0.912207 v 1.04825 h 0.912222 0.912207 0.912221 0.912205 0.912224 0.912205 0.912224 0.912205 0.912223 0.912205 0.912224 l 0.912206,1.04823 h 0.912223 0.912205 0.912222 0.912206 0.912223 0.912207 0.912205 0.912224 0.912205 0.912222 0.912199 0.912224 0.91221 0.91222 0.9122 0.91223 0.91221 v 1.04825 h 0.91223 0.9122 0.91222 0.9122 0.91223 0.9122 0.91221 V 244.5 h 0.91222 0.91221 0.91223 0.91219 0.91223 0.91219 0.91223 0.9122 0.91224 0.91221 0.91221 0.9122 0.91223 0.9122 0.91223 0.9122 0.91221 0.91222 0.91221 0.91222 0.91221 0.91222 0.91221 0.91222 0.91221 0.91222 0.91219 0.91223 0.91222 0.91222 0.91221 0.91221 0.91221 v -1.04825 h 0.9122 0.91223 0.91221 0.91222 0.9122 0.91223 0.9122 0.91223 0.91219 0.91223 0.9122 0.91224 0.9122 0.91222 0.91221 0.91223 0.91219 0.91221 0.91222 0.9122 v -1.04825 h 0.91223 0.91222 0.91222 0.91221 0.9122 0.91221 0.91222 0.91222 0.91222 0.91221 0.91222 0.9122 0.91222 0.91221 0.9122 0.91223 0.9122 0.91224 0.9122 0.91221 0.91221 0.91223 0.9122 0.91223 0.9122 0.91222 0.91221 0.91222 0.91221 0.91223 0.91219 0.91221 0.91222 0.91222 0.91221 0.91221 0.91222 0.91221 0.91222 0.91221 0.91221 0.91222 0.91221 0.91221 0.91223 0.9122 0.91222 0.91222 0.9122 0.91223 0.91218 0.91223 0.9122 0.91224 0.91221 0.91222 l 0.9122,1.04825 h 0.91222 0.9122 0.91223 0.91221 0.91223 0.9122 0.91223 0.9122 0.91222 0.91219 0.91221 0.91223 0.9122 0.91224 0.91219 0.91223 0.9122 0.91223 0.9122 0.91222 0.9122 0.91223 0.91221 0.91222 0.9122 0.91223 0.9122 0.91221 0.91222 v -1.04825 h 0.91222 v -1.04823 h 0.91222 v -1.04825 -1.04826 h 0.9122 v -1.04824 -1.04823 h 0.91222 v -1.04826 -1.04825 -1.04824 h 0.91221 v -1.04825 -1.04823 -1.04825 -1.04825 -1.04825 -1.04824 -1.04824 -1.04825 h 0.91222 v -1.04825 -1.04824 -1.04826 -1.04824 -1.04824 -1.04826 -1.04822 -1.04825 -1.04826 -1.04824 -1.04824 -1.04824 -1.04825 -1.04825 -1.04825 -1.04824 -1.04825 -1.04825 -1.04824 -1.04824 h -0.91222 v -1.04826 -1.04825 -1.04824 -1.04822 -1.04825 -1.04826 -1.04824 l -0.91221,-1.04826 v -1.04823 -1.04825 -1.04825 -1.04824 -1.04825 -1.04825 h -0.91222 v -1.04824 -1.04825 -1.04824 -1.04825 l -0.9122,-1.04824 v -1.04824 -1.04826 -1.04823 l -0.91222,-1.04825 v -1.04825 -1.04824 -1.04824 -1.04826 -1.04824 h -0.91222 v -1.04825 -1.04825 -1.04823 -1.04825 -1.04826 h -0.91222 v -1.04824 -1.04824 -1.04825 -1.04824 -1.04824 -1.04823 h -0.91221 v -1.04827 -1.04825 -1.04824 -1.04826 -1.04822 -1.04825 -1.04826 -1.04825 -1.04824 l 0.91221,-1.04825 v -1.04823 -1.04825 -1.04824 -1.04825 h 0.91222 v -1.04825 -1.04825 -1.04825 l 0.91222,-1.04822 v -1.04824 -1.04827 l 0.91222,-1.04825 v -1.04823 -1.04826 l 0.9122,-1.04823 v -1.04825 -1.04826 -1.04823 h 0.91222 v -1.04826 -1.04825 -1.04823 -1.04823 -1.04826 h 0.91221 v -1.04824 -1.04826 -1.04823 -1.04826 L 243.5878,125 v -1.04824 -1.04826 -1.04823 -1.04826 -1.04825 -1.04825 -1.04822 -1.04826 -1.04823 -1.04825 H 244.5 v -1.04825 -1.04825 -1.04824 -1.04825 -1.04825 -1.04823 -1.04826 -1.04825 -1.04824 -1.04823 -1.04826 -1.04824 -1.04824 V 99.842105 98.793857 97.745613 96.697368 95.649122 94.600878 93.55263 92.504386 91.45614 90.407894 89.359648 88.311403 87.263156 86.214912 85.166665 84.118421 83.070176 82.021929 80.973684 79.925437 78.877192 77.828947 76.780701 75.732456 74.684209 73.635965 72.587719 71.539473 70.491227 69.442983 68.394736 67.346491 66.298245 65.25 64.201754 63.153508 62.105265 61.057017 60.008772 58.960527 57.912281 56.864034 55.815788 54.767544 53.719299 52.671052 51.622807 50.574562 49.526315 48.47807 47.429824 46.381579 45.333334 44.285087 43.236842 h -0.9122 V 42.188596 41.140351 40.092106 39.04386 37.995614 36.94737 35.899122 34.850877 33.80263 32.754387 31.70614 30.657895 h -0.91222 V 29.60965 28.561404 27.513157 26.464912 h -0.91221 v -1.048245 h -0.91222 v -1.048246 h -0.9122 v -1.048246 h -0.91222 v -1.048246 h -0.91222 -0.91222 l -0.91221,-1.048245 h -0.9122 -0.91223 l -0.9122,-1.048246 h -0.91222 -0.91221 -0.91223 v -1.048246 h -0.9122 -0.91222 -0.9122 -0.91223 -0.9122 v -1.048243 h -0.91223 -0.91219 -0.91224 v -1.048248 h -0.9122 -0.91223 -0.91221 -0.91219 v -1.048245 h -0.91222 -0.9122 -0.91223 -0.9122 -0.91223 -0.91221 l -0.91223,-1.048246 h -0.9122 -0.91222 -0.9122 -0.91222 -0.91221 -0.91224 -0.9122 -0.91223 -0.91218 -0.91223 -0.9122 -0.91222 -0.91222 -0.9122 -0.91223 v -1.048245 h -0.91221 -0.91221 -0.91222 -0.91221 -0.91221 -0.91222 -0.91221 -0.91222 -0.91221 -0.91221 -0.91222 -0.91222 -0.91221 -0.91219 -0.91223 -0.91221 -0.91222 -0.91221 -0.91222 -0.9122 -0.91223 -0.9122 -0.91223 -0.91221 -0.91221 -0.9122 -0.91224 -0.9122 -0.91223 -0.9122 -0.91221 -0.91222 -0.9122 -0.91222 -0.91221 -0.91222 -0.91222 -0.91222 -0.91221 -0.9122 v -1.048246 h -0.91221 -0.91222 -0.91222 -0.91223 -0.9122 -0.91222 -0.91221 -0.91219 -0.91223 -0.91221 -0.91222 -0.9122 -0.91224 -0.9122 -0.91223 -0.91219 -0.91223 -0.9122 -0.91223 -0.9122 -0.91222 -0.91221 -0.91223 -0.9122 -0.91221 -0.91221 -0.91221 -0.91222 -0.91222 -0.91223 -0.91219 -0.91222 l -0.91221,-1.048246 h -0.91222 -0.91221 -0.91222 -0.91221 -0.91222 -0.91221 -0.91222 -0.91221 -0.9122 -0.91223 v -1.048245 h -0.9122 -0.91223 -0.9122 -0.91221 -0.91221 -0.91224 -0.9122 -0.91223 -0.91219 -0.91223 -0.91219 -0.91223 -0.91221 -0.91222 -0.91221 V 9.6929827 h -0.9122 -0.91223 -0.9122 -0.91222 -0.9122 -0.91223 -0.91221 -0.91223 -0.9122 -0.91222 -0.91221 -0.912224 -0.912199 -0.912222 -0.912205 -0.912224 -0.912205 -0.912207 -0.912223 -0.912206 V 8.6447366 H 91.248093 90.335888 89.423665 88.511459 87.599235 86.68703 85.774807 84.862602 83.950378 83.038173 82.125949 81.213744 80.301523 79.389316 78.477094 77.564887 76.652682 75.740458 74.828253 73.91603 73.003825 72.091601 71.179396 70.267173 69.354967 68.442744 67.530539 66.618316 65.706109 64.793887 63.881681 62.969457 62.057251 61.145047 60.232823 59.320619 58.408396 57.496191 56.583967 55.671761 54.759539 53.847333 52.935111 52.022904 51.110681 50.198474 49.286252 48.374046 47.461823 V 7.5964909 H 46.549618 45.637413 44.72519 43.812983 42.900761 41.988555 41.076332 40.164126 39.251904 38.339697 37.427474 36.515269 V 6.548245 H 35.603046 34.69084 33.778618 32.866413 31.95419 31.041984 30.129778 29.217555 28.305349 27.393127 V 5.5 H 26.48092 25.568698 24.656491 23.744268 22.832062 21.91984 21.007635 20.095411 19.183207 18.270982 17.358777 16.446554 V 6.548245 L 15.53435,7.5964909 v 1.0482457 1.0482461 1.0482453 1.048245 h -0.912206 v 1.048246 1.048246 1.048245 1.048246 1.048245 1.048248 1.048243 1.048246 1.048246 1.048245 1.048246"
       id="path2" />
    <path
       stroke="#000000"
       stroke-width="7"
       fill="none"
       d="m 30.562771,132.49848 h 1 1 1 v 1 h 1 1 1 1 1 v 1 h 1 1 1 1 1 1 1 1 1 1 1 1 1 1 v 1 h -1 v 1 1 1 h -1 v 1 1 1 1 1 h -1 v 1 1 1 1 1 1 1 h 1 v 1 1 1 h 1 v 1 1 1 h 1 v 1 1 1 h 1 v 1 1 1 h 1 v 1 1 1 1 h 1 v 1 1 h 1 v 1 h 1 v 1 1 h 1 v 1 h 1 v 1 h 1 v 1 h 1 v 1 h 1 v 1 h 1 v 1 h 1 v 1 h 1 v 1 h 1 v 1 h 1 1 v 1 h 1 v 1 h 1 1 v 1 h 1 1 v 1 h 1 1 v 1 h 1 1 v 1 h 1 1 1 v 1 h 1 1 1 l 1,1 h 1 1 v 1 h 1 1 1 1 1 v 1 h 1 1 1 1 v 1 h 1 1 1 1 0.999999 1 1 l 1,1 h 1 1 1 1 1 1 v 1 h 1 1 1 1 1 1 1 1 1 1 1 1 1 1 1 1 1 1 1 1 1 1 1 1 1 1 1 1 1 1 1 v -1 h 1 1 1 1 1 1 v -1 h 1 1 1 1 1 1 1 1 1 v -1 h 1 1 1 1 1 v -1 h 1 1 1 v -1 h 1 1 1 v -1 h 1 1 v -1 h 1 1 v -1 h 1 v -1 h 1 1 v -1 h 1 1 v -1 h 1 l 1,-1 h 1 v -1 h 1 v -1 h 1 v -1 h 1 v -1 h 1 v -1 h 1 v -1 h 1 l 1,-1 v -1 h 1 v -1 h 1 v -1 h 1 v -1 h 1 v -1 l 1,-1 v -1 h 1 v -1 h 1 v -1 l 1,-1 v -1 l 1,-1 v -1 -1 -1 h 1 v -1 -1 -1 h 1 v -1 -1 -1 -1 h 1 v -1 -1 -1 -1 -1 -1 -1 -1 -1 h 1 v -1 -1 -1 -1 -1 -1 -1 -1 -1 -1 -1 -1 -1 -1 -1 -1 -1 -1 -1 h -1 v -1 -1 -1 -1 h -1 v -1 -1 -1 l -1,-1 v -1 -1 h -1 v -1 -1 h -1 v -1 -1 h -1 v -1 -1 h -1 v -1 -1 h -1 v -1 h -1 v -1 h -1 v -1 l -1,-1 h -1 v -1 h -1 v -1 h -1 v -1.000001 h -1 v -1 h -1 l -1,-1 h -1 v -1 h -1 v -1 h -1 -1 v -1 h -1 l -1,-1 h -1 v -1 h -1 -1 v -1 h -1 -1 v -1 h -1 -1 l -1,-1 h -1 -1 v -1 h -1 -1 -1 v -1 h -1 -1 -1 -1 v -1 h -1 -1 -1 -1 v -1 h -1 -1 -1 -1 -1 -1 -1 v -1 h -1 -1 -1 -1 -1 -1 -1 -1 -1 -1 -1 -1 -1 -1 -1 -1 -1 -1 -1 -1 -1 -1 -1 -1 -1 -1 -1 -1 -1 -1 v 1 h -1 -1 -1 -1 -1 v 1 h -1 -1 -1 -1 v 1 h -1 -1 -1 -1 v 1 h -1 -1 -1 -1 -0.999999 -1 v 1 h 1 v 1 h 0.999999 1 v 1 h 1 v 1 h 1 1 v 1 h 1 l 1,1 h 1 v 1 h 1 v 1 h 1 1 v 1 h 1 v 1 h 1 1 v 1 h 1 1 v 1.000001 1 1 1 1 h -1 v 1 h -1 v 1 h -1 v 1 1 h -1 v 1 h -1 v 1 h -1 v 1 1 h -1 v 1 1 h -1 v 1 h -1 v 1 h -1 v 1 h -1 v 1 h -1 -1 v 1 h -1 -1 v 1 h -0.999999 -1 v 1 h -1 -1 -1 v -1 h -1 -1 v -1 h -1 -1 v -1 h -1 v -1 h -1 -1 v -1 h -1 -1 v -1 h -1 v -1 h -1 -1 v -1 h -1 v -1 h -1 -1 v -1 h -1 -1 v -1 h -1 -1 v -1 h -1 l -1,-1 h -1 -1 v -1 h -1 -1 v -1 h -1 -1 v -1 h -1 v -1 h -1 -1 v -1 h -1 v -1 h -1 -1 v -1 h -1 v -1 h -1 v -1.000001 h -1 v -1 h -1 -1 v -1 h -1 -1 v -1 h -1 v -1 h -1 v -1 h -1 -1 v -1 h -1 v -1 h -1 v -1 h -1 v -1 h -1 v -1 h -1 v -1 -1 h -1 v -1 h -1 v -1 -1 h -1 v -1 -1 -1 h 1 v -1 -1 h 1 v -1 h 1 v -1 h 1 v -1 -1 h 1 v -1 h 1 v -1 h 1 v -1 -1 h 1 v -1 h 1 v -1 h 1 v -1 h 1 v -1 h 1 v -1 -1 h 1 1 v -1 h 1 v -1 h 1 v -1 h 1 v -1 h 1 v -1 h 1 v -1 h 1 v -1 h 1 v -1 h 1 v -1 h 1 1 v -1 h 1 v -1 h 1 1 v -1 h 1 v -1 h 1 1 v -1 h 1 1 v -1 h 1 1 v -1 h 1 1 v -1 h 1 1 v -1 h 1 v -1 h 1 1 v -1 h 1 1 v -1 h 1 1 v -1 h 1 1 v -1 h 1 1 v -1 h 1 1 v -1 h 1 v -1 h 1 1 v -1 h 1 v -1 h 1 v -1 h 0.999999 v -1 h 1 v -1.000001 h 1 v 1.000001 1 h 1 v 1 1 1 1 h 1 v 1 1 1 h 1 v 1 1 h 1 v 1 h 1 v 1 h 1 v 1 1 h -1 v 1 h -1 -1 v 1 h -1 v 1 h -1 -1 v 1 h -1 -1 v 1 h -0.999999 v 1 h -1 l -1,1 h -1 v 1 h 1 1 1 v -1 h 0.999999 1 1 1 1 1 v -1 h 1 1 1 1 1 1 1 v -1 h 1 1 1 1 1 l 1,-1 h 1 1 1 1 1 1 1 1 1 1 1 1 1 1 1 1 1 1 1 1 1 1 1 1 1 1 1 1 1 1 1 1 1 1 1 1 1 1 1 1 1 1 1 1 v 1 h 1 1 1 1 1 1 1 1 v 1 h 1 1 1 1 1 1 v 1 h 1 1 1 1 v 1 h 1 1 1 v 1 h 1 1 v 1 h 1 1 l 1,1 h 1 1 v 1 h 1 1 v 1 h 1 1 v 1 h 1 1 v 1 h 1 1 v 1 h 1 1 v 1 h 1 v 1 h 1 v 1 h 1 v 1 h 1 v 1 h 1 v 1 h 1 v 1 h 1 v 1 h 1 v 1 h 1 v 1 h 1 v 1 1 h 1 v 1 l 1,1 v 1 h 1 v 1 1 h 1 v 1 1 h 1 v 1 1 h 1 v 1 1 h 1 v 1 1 1 h 1 v 1 1 1 h 1 v 1 1 1 1 h 1 v 1 1.000001 1 1 1 1 h 1 v 1 1 1 1 1 1 1 1 h 1 v 1 1 1 1 1 1 1 1 1 1 1 1 1 1 1 1 1 1 1 1 1 1 1 1 1 1 h -1 v 1 1 1 1 1 1 1 1 1 1 1 1 h -1 v 1 1 1 1 1 1 1 1 1 1 1 1 1 h -1 v 1 1 1 1 1 1 1 h -1 v 1 1 1 h -1 v 1 1 h -1 v 1 1 1 h -1 v 1 1 h -1 v 1 h -1 v 1 1 h -1 v 1 h -1 v 1 h -1 v 1 h -1 v 1 h -1 v 1 h -1 -1 v 1 h -1 v 1 h -1 -1 v 1 h -1 v 1 h -1 -1 v 1 h -1 v 1 h -1 -1 v 1 h -1 v 1 h -1 -1 v 1 h -1 v 1 h -1 -1 v 1 h -1 v 1 h -1 -1 v 1 h -1 -1 l -1,1 h -1 -1 v 1 h -1 -1 v 1 h -1 -1 v 1 h -1 -1 -1 v 1 h -1 -1 -1 v 1 h -1 -1 -1 v 1 h -1 -1 -1 v 1 h -1 -1 -1 v 1 h -1 -1 -1 v 1 h -1 -1 -1 -1 v 1 h -1 -1 -1 -1 v 1 h -1 -1 -1 -1 v 1 h -1 -1 -1 -1 -1 v 1 h -1 -1 -1 -1 -1 -1 -1 -1 -1 v 1 h -1 -1 -1 -1 -1 -1 -1 -1 v 1 h -1 -1 -1 -1 -1 -1 -1 v 1 h -1 -1 -1 -1 -1 -1 -1 -1 -1 -1 -1 -1 -1 -1 -1 -1 -1 -1 -1 -1 -0.999999 -1 -1 -1 -1 -1 -1 -1 -1 -1 -1 -1 -1 -1 -1 -1 -1 -1 -1 v -1 h -1 -1 -1 -1 -1 -1 -1 v -1 h -1 -1 -1 -1 -1 v -1 h -1 -1 -1 v -1 h -1 -1 -1 v -1 h -1 -1 -1 v -1 h -1 -1 -1 v -1 h -1 -1 v -1 h -1 -1 v -1 h -1 -1 v -1 h -1 v -1 h -1 -1 v -1 h -1 v -1 h -1 -1 v -1 h -1 v -1 h -1 v -1 h -1 v -1 h -1 v -1 h -1 v -1 h -1 v -1 h -1 v -1 h -1 v -1 h -1 v -1 -1 h -1 v -1 l -1,-1 v -1 h -1 v -1 -1 h -1 v -1 h -1 v -1 -1 h -1 v -1 -1 -1 h -1 v -1 -1 h -1 v -1 -1 h -1 v -1 -1 -1 -1 h -1 v -1 -1 -1 -1 h -1 v -1 -1 -1 -1 l -1,-1 v -1 -1 -1 -1 -1 -1 -1 -1 -1 -1 -1 -1 -1 -1 -1 -1 -1 -1 -1 -1 -1 h 1 v -1 -1 -1 -1 h 1 v -1 -1 l 1,-1 v -1 -1 h 1 v -1 h 1 v -1 h 1 v -1 h 1 v -1 h 1"
       id="path4" />
  </g>
</svg>
