<?xml version="1.0" encoding="UTF-8" standalone="no"?>
<svg
   xmlns:dc="http://purl.org/dc/elements/1.1/"
   xmlns:cc="http://creativecommons.org/ns#"
   xmlns:rdf="http://www.w3.org/1999/02/22-rdf-syntax-ns#"
   xmlns:svg="http://www.w3.org/2000/svg"
   xmlns="http://www.w3.org/2000/svg"
   viewBox="0, 0, 250, 250"
   height="100%"
   width="100%">
  <g
     id="g10"
     transform="matrix(-0.94329792,0,0,1.0039048,246.68543,244.46467)"
     style="stroke-width:1.02761">
    <path
       stroke="#000000"
       stroke-width="11"
       fill="none"
       d="m 4.8728703,-4.7851463 v -0.9597887 -0.9597887 -0.9597887 -0.9597887 -0.9597887 -0.9597882 -0.959789 -0.959789 -0.959789 -0.959788 -0.959789 -0.959789 -0.959788 -0.959789 -0.959788 -0.959789 -0.959789 -0.959788 -0.959789 -0.959789 -0.959789 h 0.9622258 v -0.959788 -0.959789 -0.959789 -0.959788 -0.959789 -0.959789 -0.959788 -0.959789 -0.959789 -0.959788 -0.959789 -0.959789 -0.959789 -0.959788 -0.959789 -0.959789 -0.959788 -0.959789 -0.959789 -0.959788 -0.959789 -0.959789 -0.959788 -0.959789 -0.959789 -0.959788 -0.959789 -0.959789 -0.959789 -0.959788 -0.959789 -0.959789 -0.959788 -0.959789 -0.959789 -0.959788 -0.959789 -0.959789 -0.959788 -0.959789 -0.959789 -0.959789 -0.959788 -0.959789 -0.959789 -0.959788 -0.959789 -0.959789 -0.959788 -0.959789 -0.959789 -0.959788 -0.959789 -0.959789 -0.959788 -0.959789 -0.959789 -0.959789 -0.959788 -0.959789 -0.959789 -0.959788 -0.959789 -0.959789 -0.959788 -0.959789 -0.959789 -0.959788 -0.959789 -0.959789 -0.959789 -0.959788 -0.959789 -0.959789 -0.959788 -0.959789 -0.959789 -0.959788 -0.959794 -0.95978 -0.95979 -0.95979 -0.95979 -0.95979 -0.95979 -0.95979 -0.95979 -0.95979 -0.95978 -0.95979 -0.95979 -0.95979 -0.95979 -0.95979 -0.95979 -0.95979 -0.95978 -0.95979 -0.95979 -0.95979 -0.95979 -0.95979 -0.95979 -0.95979 -0.95978 -0.95979 -0.95979 -0.95979 -0.95979 -0.95979 -0.95979 -0.95978 -0.95979 -0.95979 -0.95979 -0.95979 -0.95979 -0.95979 -0.95979 -0.95978 -0.95979 -0.95979 -0.95979 -0.95979 -0.95979 -0.95979 -0.95979 -0.95978 -0.95979 -0.95979 -0.95979 -0.95979 -0.95979 -0.95979 -0.95978 -0.95979 -0.95979 -0.95979 -0.95979 -0.95979 -0.95979 -0.95979 -0.95978 -0.95979 -0.95979 -0.95979 -0.95979 -0.95979 -0.95979 -0.95978 -0.95979 -0.95979 -0.95979 -0.95979 -0.95979 -0.95979 -0.95979 -0.95978 -0.95979 -0.95979 -0.95979 -0.95979 -0.95979 -0.95979 -0.95979 -0.95978 -0.95979 -0.95979 -0.95979 -0.95979 -0.95979 -0.95979 -0.95978 -0.95979 -0.95979 -0.95979 -0.95979 -0.95979 -0.95979 -0.95979 -0.95978 -0.95979 -0.95979 -0.95979 -0.95979 -0.95979 -0.95979 -0.95979 -0.95978 -0.95979 -0.95979 -0.95979 l -0.9622258,-0.95979 v -0.95979 -0.95979 -0.95978 l -0.9622258,-0.95979 v -0.95979 -0.95979 -0.95979 -0.95979 l -0.9622258,-0.95979 v -0.95979 -0.95978 -0.95979 -0.95979 -0.95979 H 1.9861929 v -0.95979 -0.95979 -0.95979 -0.95979 -0.95978 -0.95979 -0.95979 -0.95979 h 0.9622258 v -0.95979 h 0.9622258 0.9622258 0.9622258 0.9622258 0.9622258 v -0.95979 h 0.9622258 0.9622258 0.9622257 0.962226 0.962226 0.962226 v -0.95979 h 0.962225 0.962226 0.962226 0.962226 0.962226 0.962226 l 0.962225,-0.95978 h 0.962226 0.962226 0.962226 0.962226 0.962226 l 0.962225,-0.95979 h 0.962226 0.962226 0.962226 0.962226 0.962225 v -0.95979 h 0.962226 0.962226 0.962226 0.962226 0.962225 0.962226 0.962226 0.962226 0.962226 0.962225 0.962226 0.962226 0.962226 v -0.95979 h 0.962226 0.962226 0.962225 0.962226 0.962226 0.962226 0.962226 0.962225 0.962226 0.962226 0.962226 0.962226 0.962225 0.962226 0.962226 0.962226 0.962226 0.962225 0.962226 0.962226 0.962226 0.962226 0.962226 0.962225 0.962226 0.962226 0.962226 0.962226 v 0.95979 h 0.962225 0.962226 0.962226 0.962226 0.962226 0.962225 0.962226 0.962226 0.962226 0.962226 l 0.962225,0.95979 h 0.962226 0.962226 0.962226 0.962226 0.962226 0.962225 0.962226 0.962226 0.962226 0.962226 0.962225 0.962226 0.962226 0.962226 0.962226 0.962225 0.962226 l 0.962226,0.95979 h 0.962226 0.96223 0.96222 0.96223 0.96222 0.96223 0.96222 0.96223 0.96223 0.96223 0.96222 0.96223 0.96222 0.96223 0.96222 0.96223 0.96223 v 0.95978 h 0.96222 0.96223 0.96222 0.96223 0.96222 0.96223 0.96223 0.96222 0.96223 0.96222 0.96223 0.96223 0.96222 0.96223 0.96222 0.96223 l 0.96222,0.95979 h 0.96223 0.96223 0.96222 0.96223 0.96222 0.96223 0.96223 0.96222 0.96223 0.96222 0.96223 0.96222 0.96223 0.96223 0.96222 0.96223 0.96222 0.96223 0.96222 0.96223 0.96223 0.96222 0.96223 0.96222 0.96223 0.96223 0.96222 0.96223 0.96222 0.96223 0.96222 0.96223 0.96223 0.96222 0.96223 0.96222 0.96223 0.96223 0.96222 0.96223 0.96222 0.96223 0.96222 0.96223 0.96223 0.96222 0.96223 0.96222 0.96223 0.96222 0.96223 0.96223 0.96222 0.96223 0.96222 0.96223 0.96223 0.96222 0.96223 0.96222 0.96223 0.96222 0.96223 0.96223 0.96222 0.96223 0.96222 0.96223 0.96223 0.96222 0.96223 0.96222 0.96223 0.96222 0.96223 0.96223 0.96222 0.96223 0.96222 0.96223 0.96223 0.96222 0.96223 0.96222 0.96223 0.96222 0.96223 0.96223 0.96222 0.96223 0.96222 0.96223 0.96222 0.96223 0.96223 0.96222 0.96223 0.96222 0.96223 0.96223 0.96222 0.96223 0.96222 0.96223 0.96222 v 0.95979 h 0.96223 l 0.96223,0.95979 h 0.96222 v 0.95979 h 0.96223 v 0.95979 h 0.96222 v 0.95979 0.95978 h 0.96223 v 0.95979 0.95979 0.95979 h 0.96223 v 0.95979 0.95979 0.95979 0.95979 h 0.96222 v 0.95978 0.95979 0.95979 0.95979 0.95979 0.95979 0.95979 l 0.96223,0.95979 v 0.95978 0.95979 0.95979 0.95979 0.95979 0.95979 0.95979 0.95978 0.95979 h 0.96222 v 0.95979 0.95979 0.95979 0.95979 0.95979 0.95979 0.95978 0.95979 0.95979 0.95979 l 0.96223,0.95979 v 0.95979 0.95979 0.95979 0.95978 0.95979 0.95979 0.95979 0.95979 0.95979 0.95979 0.95978 0.95979 h 0.96222 v 0.95979 0.95979 0.95979 0.95979 0.95979 0.95979 0.95978 0.95979 0.95979 0.95979 0.95979 0.95979 0.95979 h 0.96223 v 0.95979 0.95978 0.95979 0.95979 0.95979 0.95979 0.95979 0.95979 0.95978 0.95979 0.95979 0.95979 0.95979 0.95979 0.95979 0.95979 0.95978 0.95979 0.95979 0.95979 0.95979 0.95979 0.95979 0.95978 0.95979 0.95979 0.95979 0.95979 0.95979 0.95979 0.95979 0.95978 0.95979 0.95979 0.95979 0.95979 h -0.96223 v 0.95979 0.95979 0.95979 0.95978 0.95979 0.95979 0.95979 0.95979 0.95979 0.95979 0.95978 0.95979 0.95979 0.95979 0.95979 0.95979 0.95979 0.95979 0.95978 0.95979 0.95979 0.95979 0.95979 0.95979 0.95979 0.95979 0.95978 0.95979 0.95979 0.95979 h 0.96223 v 0.95979 0.95979 0.95979 0.95979 0.95979 0.95978 0.959794 h 0.96223 v 0.959788 0.959789 0.959789 0.959788 0.959789 0.959789 0.959788 l 0.96222,0.959789 v 0.959789 0.959789 0.959788 0.959789 0.959789 0.959788 0.959789 h 0.96223 v 0.959789 0.959788 0.959789 0.959789 0.959788 0.959789 0.959789 h 0.96222 v 0.959789 0.959788 0.959789 0.959789 0.959788 0.959789 h 0.96223 v 0.959789 0.959788 0.959789 0.959789 0.959788 0.959789 l 0.96222,0.959789 v 0.959788 0.959789 0.959789 0.959789 0.959788 h 0.96223 v 0.959789 0.959789 0.959788 0.959789 l 0.96223,0.959789 v 0.959788 0.959789 0.959789 0.959788 h 0.96222 v 0.959789 0.959789 0.959789 0.959788 l 0.96223,0.959789 v 0.959789 0.959788 0.959789 0.959789 h 0.96222 v 0.959788 0.959789 0.959789 0.959788 0.959789 0.959789 h 0.96223 v 0.959788 0.959789 0.959789 0.959789 0.959788 0.959789 0.959789 0.959788 0.959789 0.959789 0.959788 0.959789 0.959789 0.959788 0.959789 0.959789 l -0.96223,0.959789 v 0.959788 0.959789 h -0.96222 v 0.959789 0.959788 h -0.96223 v 0.959789 0.959788 h -0.96222 v 0.959789 h -0.96223 v 0.959789 l -0.96223,0.959788 -0.96222,0.959789 H 248.316 v 0.959789 h -0.96222 v 0.959789 h -0.96223 -0.96222 -0.96223 v 0.9597882 h -0.96223 -0.96222 -0.96223 v 0.9597887 h -0.96222 -0.96223 -0.96222 v 0.9597887 h -0.96223 -0.96223 -0.96222 l -0.96223,0.9597887 h -0.96222 -0.96223 l -0.96223,0.9597887 h -0.96222 -0.96223 -0.96222 v 0.9597887 h -0.96223 -0.96222 -0.96223 v 0.9597886 h -0.96223 -0.96222 -0.96223 -0.96222 v 0.9597887 h -0.96223 -0.96223 -0.96222 -0.96223 v 0.9597887 h -0.96222 -0.96223 -0.96222 -0.96223 -0.96223 -0.96222 -0.96223 l -0.96222,0.95978872 h -0.96223 -0.96222 -0.96223 -0.96223 -0.96222 -0.96223 -0.96222 -0.96223 -0.96223 -0.96222 -0.96223 -0.96222 -0.96223 -0.96222 -0.96223 -0.96223 -0.96222 -0.96223 -0.96222 -0.96223 -0.96223 -0.96222 -0.96223 -0.96222 -0.96223 -0.96222 -0.96223 -0.96223 -0.96222 -0.96223 -0.96222 -0.96223 -0.96223 -0.96222 -0.96223 -0.96222 -0.96223 l -0.96222,0.95978869 h -0.96223 -0.96223 -0.96222 -0.96223 -0.96222 -0.96223 -0.96222 -0.96223 -0.96223 -0.96222 -0.96223 -0.96222 -0.96223 -0.96223 -0.96222 -0.96223 -0.96222 -0.96223 -0.96222 -0.96223 -0.96223 -0.96222 -0.96223 -0.96222 -0.96223 -0.96223 -0.96222 -0.96223 -0.96222 -0.96223 -0.96222 -0.96223 -0.96223 -0.96222 -0.96223 -0.96222 -0.96223 l -0.96222,-0.95978869 h -0.96223 -0.96223 -0.96222 -0.96223 -0.96222 -0.96223 -0.96223 -0.96222 H 129 h -0.96222 -0.96223 -0.96222 -0.96223 -0.96223 -0.96222 -0.96223 -0.96222 -0.96223 l -0.96223,-0.95978872 h -0.96222 -0.96223 -0.96222 -0.96223 -0.96222 -0.96223 -0.96223 -0.96222 -0.96223 -0.96222 -0.96223 -0.96222 -0.96223 -0.96223 -0.96223 -0.96222 -0.96223 -0.96222 -0.96223 -0.96222 H 99.171 98.208774 97.246548 96.284322 95.322097 94.359871 93.397645 92.435419 91.473193 90.510968 V -2.865569 H 89.548742 88.586516 87.62429 86.662064 85.699839 84.737613 83.775387 82.813161 81.850935 80.888709 79.926484 78.964258 78.002032 77.039806 76.07758 75.115355 74.153129 73.190903 L 72.228677,-3.8253577 H 71.266451 70.304226 69.342 68.379774 67.417548 66.455322 65.493097 64.530871 63.568645 62.606419 61.644193 60.681967 59.719742 58.757516 57.79529 56.833064 55.870838 54.908613 53.946387 52.984161 52.021935 51.059709 50.097484 49.135258 48.173032 47.210806 46.24858 45.286355 44.324129 43.361903 42.399677 41.437451 40.475225 39.513 38.550774 37.588548 36.626322 35.664096 34.701871 33.739645 32.777419 31.815193 L 30.852967,-2.865569 H 29.890742 28.928516 27.96629 27.004064 26.041838 25.079613 24.117387 23.155161 22.192935 21.230709 20.268483 19.306258 18.344032 17.381806 16.41958 15.457354 14.495128 13.532903 12.570677 11.608451 10.646225 9.6839993 8.7217735 7.7595477 6.7973219 V -3.8253577 H 5.8350961 4.8728703 3.9106445 V -4.7851463 H 2.9484187 v -0.9597887 -0.9597887 -0.9597887 -0.9597887 -0.9597887 -0.9597882 -0.959789 -0.959789 -0.959789"
       id="path2" />
    <path
       stroke="#000000"
       stroke-width="7"
       fill="none"
       d="m 20.038332,-194.04544 v -1.00908 -1.00908 -1.00908 h 0.965563 v -1.00907 -1.00908 -1.00908 -1.00908 h 0.965563 v -1.00908 -1.00907 -1.00908 -1.00908 h 0.965563 v -1.00908 -1.00908 -1.00907 -1.00908 -1.00908 -1.00908 -1.00908 h 0.965564 v -1.00907 -1.00908 -1.00908 h 0.965563 0.965563 v -1.00908 h 0.965563 v -1.00907 h 0.965563 0.965563 0.965563 0.965563 v -1.00908 h 0.965563 0.965563 0.965563 v -1.00908 h 0.965563 0.965564 0.965563 0.965563 0.965563 v -1.00908 h 0.965563 0.965563 0.965563 0.965563 0.965563 0.965563 0.965563 0.965563 0.965563 0.965564 0.965563 0.965563 0.965563 0.965563 0.965563 0.965563 0.965563 0.965563 0.965563 0.965563 0.965563 0.965564 0.965563 0.965563 0.965563 0.965563 v 1.00908 h 0.965563 0.965563 0.965563 0.965563 0.965563 0.965563 0.965563 0.965563 0.965564 v 1.00908 h 0.965563 0.965563 0.965563 0.965563 0.965563 0.965563 0.965563 0.965563 0.965563 0.965563 0.965563 0.965564 0.965563 0.965563 0.965563 0.965563 0.965563 0.965563 0.965563 0.965563 0.965563 0.965563 0.965563 0.965567 0.96556 0.96556 0.96557 0.96556 0.965564 0.96556 0.96557 0.96556 0.96556 0.96557 0.96556 0.96556 0.96557 0.96556 0.96556 0.96557 0.96556 0.96556 0.96557 0.96556 0.96556 0.96556 0.96557 0.96556 0.96556 0.96557 0.96556 0.96556 0.96557 0.96556 0.96556 0.96557 0.96556 0.96556 0.96556 0.96557 0.96556 0.96556 0.96557 0.96556 0.96556 0.96557 0.96556 0.96556 0.96557 v -1.00908 h 0.96556 0.96556 0.96556 0.96557 0.96556 0.96556 0.96557 0.96556 0.96556 0.96557 0.96556 0.96556 0.96557 0.96556 0.96556 0.96556 0.96557 0.96556 0.96556 0.96557 0.96556 0.96556 0.96557 0.96556 0.96556 0.96557 0.96556 0.96556 0.96556 0.96557 0.96556 0.96556 0.96557 0.96556 0.96556 0.96557 0.96556 0.96556 0.96557 0.96556 0.96556 0.96556 0.96557 0.96556 0.96556 0.96557 0.96556 0.96556 0.96557 0.96556 0.96556 0.96557 0.96556 0.96556 0.96556 0.96557 0.96556 0.96556 0.96557 0.96556 0.96556 0.96557 0.96556 0.96556 0.96557 0.96556 0.96556 0.96556 0.96557 0.96556 0.96556 0.96557 0.96556 0.96556 0.96557 0.96556 0.96556 0.96557 0.96556 0.96556 0.96556 0.96557 0.96556 0.96556 0.96557 v 1.00908 h 0.96556 l 0.96556,1.00908 v 1.00907 1.00908 h 0.96557 v 1.00908 1.00908 1.00907 1.00908 h 0.96556 v 1.00908 1.00908 1.00908 1.00907 1.00908 1.00908 1.00908 1.00908 h -0.96556 v 1.00907 1.00908 l -0.96557,1.00908 v 1.00908 1.00908 1.00907 h -0.96556 -0.96556 l -0.96557,1.00908 h -0.96556 -0.96556 -0.96557 l -0.96556,1.00908 h -0.96556 -0.96556 -0.96557 v 1.00908 h -0.96556 -0.96556 -0.96557 -0.96556 -0.96556 -0.96557 -0.96556 v 1.00908 h -0.96556 -0.96557 -0.96556 -0.96556 -0.96556 -0.96557 -0.96556 -0.96556 -0.96557 -0.96556 -0.96556 v -1.00908 h -0.96557 -0.96556 -0.96556 -0.96557 -0.96556 -0.96556 -0.96556 -0.96557 -0.96556 -0.96556 -0.96557 -0.96556 -0.96556 -0.96557 -0.96556 -0.96556 -0.96557 -0.96556 -0.96556 -0.96556 -0.96557 -0.96556 -0.96556 -0.96557 -0.96556 -0.96556 -0.96557 -0.96556 -0.96556 -0.96557 -0.96556 -0.96556 -0.96556 -0.96557 -0.96556 -0.96556 -0.96557 -0.96556 -0.96556 -0.96557 -0.96556 -0.96556 -0.96557 -0.96556 -0.96556 -0.96556 -0.96557 -0.96556 -0.96556 -0.96557 -0.96556 -0.96556 -0.96557 -0.96556 -0.96556 -0.96557 -0.96556 -0.96556 -0.96556 -0.96557 -0.96556 -0.96556 -0.96557 -0.96556 -0.96556 -0.96557 -0.96556 -0.96556 -0.96557 -0.96556 -0.96556 -0.96556 -0.96557 -0.96556 -0.96556 -0.96557 -0.96556 -0.96556 -0.96557 -0.96556 -0.96556 -0.96557 -0.96556 -0.96556 -0.96556 -0.96557 -0.96556 -0.96556 -0.96557 -0.96556 -0.96556 -0.96557 -0.96556 -0.96556 -0.96557 -0.96556 -0.96556 -0.96557 -0.96556 -0.965564 -0.96556 -0.96557 -0.96556 -0.96556 H 94.386689 93.421126 92.455563 91.49 90.524437 89.558874 88.593311 87.627748 86.662185 85.696622 84.731059 83.765496 82.799932 81.834369 80.868806 79.903243 78.93768 77.972117 77.006554 76.040991 75.075428 74.109865 73.144302 72.178739 71.213175 70.247612 69.282049 68.316486 67.350923 66.38536 65.419797 64.454234 63.488671 62.523108 61.557545 60.591982 59.626419 58.660855 57.695292 56.729729 55.764166 54.798603 53.83304 52.867477 51.901914 50.936351 49.970788 49.005225 48.039662 47.074098 46.108535 45.142972 44.177409 43.211846 42.246283 41.28072 40.315157 39.349594 38.384031 37.418468 36.452905 35.487342 34.521778 33.556215 32.590652 31.625089 30.659526 29.693963 28.7284 27.762837 26.797274 25.831711 24.866148 23.900585 22.935021 21.969458 v -1.00908 h -0.965563 -0.965563 v -1.00908 h -0.965563 v -1.00908 -1.00907 h -0.965563 v -1.00908 -1.00908 -1.00908 -1.00908 -1.00907 -1.00908 -1.00908 -1.00908 -1.00908 -1.00907 h 0.965563"
       id="path4" />
    <path
       stroke="#000000"
       stroke-width="7"
       fill="none"
       d="m 19.812139,-168.76474 v -1 -1 -1 -1 -1 -1 -1 h 0.966881 v -1 -1 -1 -1 h 0.966882 v -1 -1 h 0.966881 v -1 h 0.966882 v -1 h 0.966881 0.966882 0.966881 0.966882 0.966882 0.966881 0.966882 0.966881 0.966882 0.966881 0.966882 0.966881 0.966882 0.966881 0.966882 0.966882 0.966881 0.966882 0.966881 0.966882 0.966881 0.966882 0.966881 0.966882 0.966882 0.966881 0.966882 0.966881 0.966882 0.966881 0.966882 0.966881 0.966881 0.966881 0.966882 0.966882 0.966881 0.966882 0.966881 0.966882 0.966881 0.966882 0.966881 0.966882 v 1 h 0.966882 0.966881 0.966882 0.966881 0.966882 0.966881 0.966882 0.966881 0.966882 0.966881 0.966882 0.966882 0.966881 0.966882 0.966881 0.966882 0.966881 0.966882 0.966881 0.966882 0.966882 0.966881 0.966882 0.966881 0.966882 0.966881 0.966882 0.966881 0.966882 0.966881 0.966882 0.966882 v 1 h 0.966881 0.966882 0.966885 0.96688 0.96688 0.96688 0.96688 0.96688 0.96689 v 1 h 0.96688 0.96688 0.96688 0.96688 0.96689 0.96688 0.96688 0.96688 0.96688 0.96689 0.96687 0.96688 0.96688 0.96688 0.96689 0.96688 0.96688 0.96688 0.96688 0.96689 0.96688 0.96688 0.96688 0.96688 0.96689 0.96688 0.96688 0.96688 0.96688 0.96688 0.96689 l 0.96688,1 h 0.96687 0.96688 0.96688 0.96689 0.96688 0.96688 0.96688 0.96688 0.96689 0.96688 0.96688 0.96688 0.96688 0.96689 0.96688 0.96688 0.96688 0.96688 0.96689 0.96688 0.96688 0.96688 0.96687 0.96689 0.96688 0.96688 0.96688 0.96688 0.96689 0.96688 0.96688 0.96688 0.96688 0.96689 0.96688 0.96688 0.96688 0.96688 0.96689 0.96688 0.96688 0.96688 0.96688 0.96689 0.96687 0.96688 0.96688 0.96688 0.96689 0.96688 0.96688 0.96688 0.96688 0.96689 l 0.96688,-1 h 0.96688 0.96688 0.96688 0.96689 0.96688 v -1 h 0.96688 0.96688 0.96688 0.96689 0.96688 0.96688 0.96687 0.96688 0.96689 0.96688 0.96688 v -1 h 0.96688 0.96688 0.96689 0.96688 0.96688 0.96688 0.96688 0.96689 0.96688 0.96688 v -1 h 0.96688 0.96688 0.96689 0.96688 0.96688 0.96688 0.96688 0.96689 0.96687 v 1 h 0.96688 v 1 1 1 1 1 1 1 1 1 1 1 1 1 1 1 1 1 1 1 h -0.96688 v 1 h -0.96687 -0.96689 v 1 h -0.96688 -0.96688 -0.96688 -0.96688 v 1 h -0.96689 -0.96688 -0.96688 -0.96688 -0.96688 -0.96689 -0.96688 -0.96688 -0.96688 -0.96688 -0.96689 v 1 h -0.96688 -0.96688 -0.96688 -0.96688 -0.96689 -0.96688 -0.96687 -0.96688 -0.96688 -0.96689 -0.96688 -0.96688 -0.96688 -0.96688 -0.96689 -0.96688 -0.96688 -0.96688 -0.96688 -0.96689 -0.96688 -0.96688 -0.96688 -0.96688 -0.96689 -0.96688 -0.96688 -0.96688 -0.96687 -0.96689 -0.96688 -0.96688 -0.96688 -0.96688 -0.96689 -0.96688 -0.96688 -0.96688 -0.96688 -0.96689 -0.96688 -0.96688 -0.96688 -0.96688 -0.96689 -0.96688 -0.96688 -0.96688 -0.96688 -0.96689 -0.96687 -0.96688 -0.96688 -0.96688 -0.96689 -0.96688 -0.96688 -0.96688 -0.96688 -0.96689 -0.96688 -0.96688 -0.96688 -0.96688 -0.96689 -0.96688 -0.96688 -0.96688 -0.96688 -0.96689 -0.96688 -0.96688 -0.96687 -0.96688 -0.96689 -0.96688 -0.96688 -0.96688 -0.96688 -0.96688 -0.96689 -0.96688 -0.96688 -0.96688 -0.96688 -0.96689 -0.96688 -0.96688 -0.96688 -0.96688 -0.96689 -0.96688 -0.96688 -0.96688 -0.96687 -0.96689 -0.96688 -0.96688 -0.96688 -0.96688 -0.96689 -0.96688 -0.96688 -0.96688 -0.96688 -0.96689 -0.96688 -0.96688 -0.96688 -0.96688 -0.96688 -0.966885 -0.966882 -0.966881 -0.966882 -0.966882 -0.966881 -0.966882 -0.966881 -0.966882 -0.966881 -0.966882 -0.966881 l -0.966882,1 H 86.526965 85.560083 84.593201 83.62632 82.659438 81.692557 80.725675 79.758794 78.791912 77.825031 76.858149 75.891267 74.924386 73.957504 72.990623 72.023741 71.05686 70.089978 69.123097 68.156215 67.189334 l -0.966882,1 H 65.25557 64.288689 63.321807 62.354926 61.388044 60.421163 59.454281 58.4874 57.520518 56.553636 55.586755 54.619874 53.652993 52.686111 51.71923 50.752348 49.785467 48.818585 47.851704 46.884822 45.91794 44.951059 43.984177 43.017296 42.050414 41.083533 40.116651 l -0.966881,-1 H 38.182888 37.216006 36.249125 35.282243 34.315362 33.34848 v -1 h -0.966881 -0.966882 -0.966881 v -1 h -0.966882 -0.966881 -0.966882 -0.966882 -0.966881 v -1 h -0.966882 -0.966881 -0.966882 v -1 h -0.966881 v -1 H 20.77902 v -1 h -0.966881 v -1 l -0.966882,-1 v -1 -1 -1"
       id="path6" />
    <path
       stroke="#000000"
       stroke-width="7"
       fill="none"
       d="m 123.56256,-146.09244 h -0.85047 -0.85046 v 0.98033 h -0.85047 v 0.98035 h -0.85046 v 0.98033 h -0.85046 v 0.98034 h -0.85047 -0.85046 v 0.98033 h -0.85047 v 0.98034 h -0.85046 v 0.98034 h -0.85047 v 0.98033 h -0.85046 v 0.98033 h -0.85046 v 0.98035 h -0.85047 v 0.98033 h -0.85046 v 0.98034 h -0.85047 v 0.98033 h -0.85047 v 0.98034 h -0.85045 v 0.98034 h -0.85047 v 0.98033 h -0.85046 v 0.98034 h -0.85047 -0.85047 v 0.98034 h -0.85046 v 0.98033 h -0.85046 v 0.98034 h -0.85047 -0.85046 v 0.98033 h -0.85047 v 0.98034 h -0.85046 v 0.98034 h -0.850463 v 0.98033 h -0.85047 v 0.98034 h -0.85046 v 0.98034 h -0.85047 v 0.98033 h -0.85046 v 0.98034 l -0.850465,0.98033 v 0.98035 h -0.850465 v 0.98033 l -0.850464,0.98033 v 0.98034 h -0.850465 v 0.98034 h -0.850464 v 0.98033 h -0.850465 v 0.98034 h -0.850464 v 0.98033 h -0.850464 v 0.98035 h -0.850464 v 0.98033 h -0.850464 v 0.98033 h -0.850465 v 0.98034 H 86.142124 85.29166 v 0.98034 h -0.850464 v 0.98033 H 83.59073 v 0.98034 0.98034 h -0.850464 v 0.98033 h -0.850464 v 0.98034 h -0.850464 v 0.980336 h -0.850465 v 0.980336 h -0.850464 v 0.980337 h -0.850464 v 0.980336 0.980336 h -0.850464 v 0.980336 0.980336 0.980337 0.980336 h 0.850464 v 0.980337 h 0.850464 0.850464 0.850465 0.850464 0.850464 0.850464 0.850466 0.850464 0.850464 0.850464 0.850465 0.850464 0.850464 0.850464 0.850464 0.850465 0.850464 0.850465 0.850464 0.850465 0.850465 0.85046 0.85047 l 0.85046,0.980336 v 0.980337 0.980335 h 0.85047 v 0.980336 0.980337 0.980336 0.980337 h 0.850463 v 0.980336 0.980336 0.980336 0.980337 0.980336 0.980336 0.980337 0.980335 0.980337 0.980336 0.980337 0.980336 0.980336 0.980336 0.980336 0.980337 0.980336 0.980337 0.980336 0.980337 0.980335 0.980336 0.980337 0.980336 0.980337 0.980336 h -0.850463 v 0.980336 0.980336 0.980337 0.980336 0.980336 0.980337 h -0.85047 v 0.980335 0.980337 0.980336 0.980337 0.980336 0.980336 0.980336 0.980336 0.980337 0.980336 0.980337 0.980336 0.980337 0.980335 0.980336 0.980337 0.980336 l -0.85046,0.980337 v 0.980336 0.980336 0.980336 0.980337 0.980336 0.980336 0.980337 0.980335 0.980337 0.980336 0.980337 0.980336 0.980336 0.980336 h 0.85046 v 0.980336 0.980337 0.980336 h 0.85047 v 0.980337 0.980336 h 0.850463 v 0.980337 h 0.85046 0.85047 0.85046 0.85047 0.85046 0.85046 0.85047 0.85047 v -0.980337 h 0.85046 0.85047 0.85045 0.85047 v -0.980336 h 0.85047 0.85046 0.85047 0.85046 v -0.980337 h 0.85046 0.85047 0.85046 0.85047 0.85046 0.85047 0.85046 0.85046 0.85047 0.85046 0.85047 0.85046 0.85046 0.85047 0.85047 0.85046 0.85047 0.85045 0.85047 0.85047 0.85046 v 0.980337 h 0.85047 0.85046 0.85046 0.85047 0.85046 0.85047 0.85046 0.85046 0.85047 0.85046 0.85047 v 0.980336 h 0.85046 0.85047 v -0.980336 h 0.85046 v -0.980337 h 0.85046 v -0.980336 -0.980337 h 0.85047 v -0.980336 -0.980336 -0.980336 -0.980336 -0.980337 -0.980336 -0.980337 -0.980335 -0.980337 -0.980336 -0.980336 -0.980337 -0.980336 -0.980336 -0.980336 -0.980337 -0.980336 -0.980337 -0.980336 -0.980335 -0.980337 -0.980336 -0.980337 h -0.85047 v -0.980336 -0.980337 -0.980336 -0.980336 -0.980336 -0.980336 -0.980337 -0.980336 h -0.85046 v -0.980337 -0.980335 -0.980337 -0.980336 -0.980336 -0.980337 -0.980336 -0.980336 -0.980336 -0.980337 -0.980336 h -0.85046 v -0.980337 -0.980336 -0.980335 -0.980337 -0.980336 -0.980337 -0.980336 -0.980337 -0.980336 -0.980336 -0.980336 -0.980336 -0.980337 -0.980336 -0.980337 -0.980335 -0.980337 -0.980336 -0.980336 -0.980337 -0.980336 -0.980336 -0.980336 -0.980337 -0.980336 -0.980337 -0.980336 -0.980335 -0.980337 -0.980336 -0.980337 h 0.85046 v -0.980336 h 0.85046 0.85047 0.85047 0.85046 0.85046 0.85046 0.85047 0.85047 0.85046 0.85047 0.85045 0.85047 0.85047 v 0.980336 h 0.85046 0.85047 0.85046 0.85046 0.85047 v 0.980337 h 0.85046 0.85047 0.85046 0.85046 0.85047 0.85046 0.85047 0.85047 0.85046 0.85046 0.85046 0.85047 v -0.980337 h 0.85047 0.85046 v -0.980336 h 0.85047 v -0.980337 -0.980336 -0.980336 -0.980336 h -0.85047 v -0.980336 -0.980337 h -0.85046 v -0.980336 -0.980336 h -0.85047 v -0.98034 h -0.85047 v -0.98033 -0.98034 h -0.85046 v -0.98034 h -0.85046 v -0.98033 h -0.85046 v -0.98034 h -0.85047 v -0.98034 h -0.85047 v -0.98033 h -0.85046 v -0.98033 h -0.85047 v -0.98035 -0.98033 h -0.85046 v -0.98034 h -0.85046 v -0.98033 h -0.85047 v -0.98034 h -0.85046 v -0.98034 h -0.85047 v -0.98033 h -0.85046 v -0.98033 h -0.85046 v -0.98035 -0.98033 h -0.85047 v -0.98034 h -0.85046 v -0.98033 h -0.85047 v -0.98034 -0.98034 h -0.85047 v -0.98033 h -0.85045 v -0.98034 h -0.85047 v -0.98034 h -0.85046 v -0.98033 h -0.85047 v -0.98034 h -0.85047 v -0.98033 h -0.85046 -0.85046 v -0.98034 h -0.85046 v -0.98034 h -0.85047 v -0.98033 h -0.85047 -0.85046 v -0.98034 h -0.85046 v -0.98034 h -0.85047 v -0.98033 h -0.85046 -0.85047 v -0.98034 h -0.85046 -0.85047 v -0.98033 h -0.85046 -0.85046 v -0.98035 h -0.85047 -0.85046 v -0.98033 h -0.85047 v -0.98033 h -0.85046 v -0.98034 h -0.85046 v -0.98034 h -0.85047 l -0.85046,-0.98033 h -0.85047 v -0.98034 h -0.85047 v -0.98033 h -0.85045 v -0.98035 -0.98033 h -0.85047 v -0.98033 h -0.85046 v -0.98034 h -0.85047 -0.85047 v -0.98033 h -0.85046 v -0.98035 h -0.85046"
       id="path8" />
  </g>
</svg>
